<?xml version="1.0" encoding="UTF-8"?>
<!DOCTYPE svg PUBLIC "-//W3C//DTD SVG 1.1//EN" "http://www.w3.org/Graphics/SVG/1.1/DTD/svg11.dtd">
<svg xmlns="http://www.w3.org/2000/svg" version="1.1" width="50px" height="33px" style="shape-rendering:geometricPrecision; text-rendering:geometricPrecision; image-rendering:optimizeQuality; fill-rule:evenodd; clip-rule:evenodd" xmlns:xlink="http://www.w3.org/1999/xlink">
<g><path style="opacity:1" fill="#504f4e" d="M 24.5,4.5 C 27.4432,4.98023 30.1098,5.98023 32.5,7.5C 23.542,9.04625 14.8754,11.3796 6.5,14.5C 6.16667,14.5 5.83333,14.5 5.5,14.5C 4.19022,12.8523 2.85689,11.1856 1.5,9.5C 9.02522,7.30012 16.6919,5.63345 24.5,4.5 Z"/></g>
<g><path style="opacity:0.036" fill="#d0cfcd" d="M -0.5,-0.5 C 2.83333,-0.5 6.16667,-0.5 9.5,-0.5C 14.3605,1.63066 19.3605,3.29732 24.5,4.5C 16.6919,5.63345 9.02522,7.30012 1.5,9.5C 2.85689,11.1856 4.19022,12.8523 5.5,14.5C 6.58457,16.5869 8.25124,17.9202 10.5,18.5C 11.5,18.8333 12.1667,19.5 12.5,20.5C 13.5846,22.5869 15.2512,23.9202 17.5,24.5C 17.3893,25.1174 17.056,25.6174 16.5,26C 10.7717,27.3484 5.10501,28.8484 -0.5,30.5C -0.5,20.1667 -0.5,9.83333 -0.5,-0.5 Z"/></g>
<g><path style="opacity:1" fill="#3f3d3d" d="M 32.5,7.5 C 38.285,8.53613 43.6183,10.5361 48.5,13.5C 48.5299,14.4972 48.0299,15.1639 47,15.5C 43.2837,16.5673 39.7837,17.9006 36.5,19.5C 35.1266,19.3433 33.7932,19.51 32.5,20C 31.2617,20.69 31.2617,21.19 32.5,21.5C 30.1098,23.0198 27.4432,24.0198 24.5,24.5C 24.631,23.7611 24.4643,23.0944 24,22.5C 21.5991,23.6023 19.0991,23.769 16.5,23C 15.5291,21.5187 14.1958,20.6854 12.5,20.5C 12.1667,19.5 11.5,18.8333 10.5,18.5C 9.5,16.8333 8.16667,15.5 6.5,14.5C 14.8754,11.3796 23.542,9.04625 32.5,7.5 Z"/></g>
<g><path style="opacity:0.984" fill="#b09d69" d="M 5.5,14.5 C 5.83333,14.5 6.16667,14.5 6.5,14.5C 8.16667,15.5 9.5,16.8333 10.5,18.5C 8.25124,17.9202 6.58457,16.5869 5.5,14.5 Z"/></g>
<g><path style="opacity:0.034" fill="#cfcecf" d="M 48.5,13.5 C 48.8333,13.5 49.1667,13.5 49.5,13.5C 49.5,19.8333 49.5,26.1667 49.5,32.5C 32.8333,32.5 16.1667,32.5 -0.5,32.5C -0.5,32.1667 -0.5,31.8333 -0.5,31.5C 5.481,30.0048 11.481,28.5048 17.5,27C 19.3197,26.7996 20.653,25.9663 21.5,24.5C 22.5,24.5 23.5,24.5 24.5,24.5C 27.4432,24.0198 30.1098,23.0198 32.5,21.5C 33.9952,21.0113 35.3285,20.3446 36.5,19.5C 39.7837,17.9006 43.2837,16.5673 47,15.5C 48.0299,15.1639 48.5299,14.4972 48.5,13.5 Z"/></g>
<g><path style="opacity:0.478" fill="#bc839f" d="M 36.5,19.5 C 35.3285,20.3446 33.9952,21.0113 32.5,21.5C 31.2617,21.19 31.2617,20.69 32.5,20C 33.7932,19.51 35.1266,19.3433 36.5,19.5 Z"/></g>
<g><path style="opacity:1" fill="#8b3e46" d="M 12.5,20.5 C 14.1958,20.6854 15.5291,21.5187 16.5,23C 19.0991,23.769 21.5991,23.6023 24,22.5C 24.4643,23.0944 24.631,23.7611 24.5,24.5C 23.5,24.5 22.5,24.5 21.5,24.5C 20.1667,24.5 18.8333,24.5 17.5,24.5C 15.2512,23.9202 13.5846,22.5869 12.5,20.5 Z"/></g>
<g><path style="opacity:0.553" fill="#7e7979" d="M 17.5,24.5 C 18.8333,24.5 20.1667,24.5 21.5,24.5C 20.653,25.9663 19.3197,26.7996 17.5,27C 11.481,28.5048 5.481,30.0048 -0.5,31.5C -0.5,31.1667 -0.5,30.8333 -0.5,30.5C 5.10501,28.8484 10.7717,27.3484 16.5,26C 17.056,25.6174 17.3893,25.1174 17.5,24.5 Z"/></g>
</svg>
