<svg xmlns="http://www.w3.org/2000/svg" width="23.999" height="23.999" viewBox="0 0 23.999 23.999">
  <g id="Group_14869" data-name="Group 14869" transform="translate(4861 -5439.282)">
    <path id="Path_17541" data-name="Path 17541" d="M66.6,228.171h3.13a.522.522,0,0,0,.522-.522v-3.13A.522.522,0,0,0,69.73,224H66.6a.522.522,0,0,0-.522.522v3.13a.522.522,0,0,0,.522.522" transform="translate(-4924.923 5217.428)" fill="#707070"/>
    <path id="Path_17542" data-name="Path 17542" d="M229.73,224H226.6a.522.522,0,0,0-.522.522v3.13a.522.522,0,0,0,.522.522h3.13a.522.522,0,0,0,.522-.522v-3.13a.522.522,0,0,0-.522-.522" transform="translate(-5079.707 5217.428)" fill="#707070"/>
    <path id="Path_17543" data-name="Path 17543" d="M66.6,388.171h3.13a.522.522,0,0,0,.522-.522v-3.13A.522.522,0,0,0,69.73,384H66.6a.522.522,0,0,0-.522.522v3.13a.522.522,0,0,0,.522.522" transform="translate(-4924.923 5062.645)" fill="#707070"/>
    <path id="Path_17544" data-name="Path 17544" d="M229.73,384H226.6a.522.522,0,0,0-.522.522v3.13a.522.522,0,0,0,.522.522h3.13a.522.522,0,0,0,.522-.522v-3.13a.522.522,0,0,0-.522-.522" transform="translate(-5079.707 5062.645)" fill="#707070"/>
    <path id="Path_17545" data-name="Path 17545" d="M66.6,548.171h3.13a.522.522,0,0,0,.522-.522v-3.13A.522.522,0,0,0,69.73,544H66.6a.522.522,0,0,0-.522.522v3.13a.522.522,0,0,0,.522.522" transform="translate(-4924.923 4907.862)" fill="#707070"/>
    <path id="Path_17546" data-name="Path 17546" d="M229.73,544H226.6a.522.522,0,0,0-.522.522v3.13a.522.522,0,0,0,.522.522h3.13a.522.522,0,0,0,.522-.522v-3.13a.522.522,0,0,0-.522-.522" transform="translate(-5079.707 4907.862)" fill="#707070"/>
    <path id="Path_17547" data-name="Path 17547" d="M74.947,704H66.6a.522.522,0,0,0-.522.522v3.13a.522.522,0,0,0,.522.522h8.347a.522.522,0,0,0,.522-.522v-3.13a.522.522,0,0,0-.522-.522" transform="translate(-4924.923 4753.079)" fill="#707070"/>
    <path id="Path_17548" data-name="Path 17548" d="M553.009,224a2.087,2.087,0,1,0,2.087,2.087A2.087,2.087,0,0,0,553.009,224" transform="translate(-5393.958 5217.428)" fill="#707070"/>
    <path id="Path_17549" data-name="Path 17549" d="M22.343,158.279H1.655A1.685,1.685,0,0,0,0,159.993v20.57a1.685,1.685,0,0,0,1.655,1.714H22.343A1.685,1.685,0,0,0,24,180.563v-20.57a1.685,1.685,0,0,0-1.655-1.714m.828,22.284a.844.844,0,0,1-.828.857H1.655a.844.844,0,0,1-.828-.857v-20.57a.844.844,0,0,1,.828-.857H22.343a.844.844,0,0,1,.828.857Z" transform="translate(-4861 5281.003)" fill="#707070"/>
    <path id="Path_17550" data-name="Path 17550" d="M599.444,415.992a.522.522,0,0,0-.522.522V428a.522.522,0,0,0,1.043,0V416.514a.522.522,0,0,0-.522-.522" transform="translate(-5440.393 5031.692)" fill="#707070"/>
    <path id="Path_17551" data-name="Path 17551" d="M389.574,224.044h-3.13a.522.522,0,0,0-.522.522v8.347a.522.522,0,0,0,.522.522h3.13a.522.522,0,0,0,.522-.522v-8.347a.522.522,0,0,0-.522-.522" transform="translate(-5234.338 5217.382)" fill="#707070"/>
    <path id="Path_17552" data-name="Path 17552" d="M389.574,544.044h-3.13a.522.522,0,0,0-.522.522v8.347a.522.522,0,0,0,.522.522h3.13a.522.522,0,0,0,.522-.522v-8.347a.522.522,0,0,0-.522-.522" transform="translate(-5234.338 4907.816)" fill="#707070"/>
  </g>
</svg>
