<?xml version="1.0" encoding="utf-8"?>
<!-- Generator: Adobe Illustrator 27.2.0, SVG Export Plug-In . SVG Version: 6.00 Build 0)  -->
<svg version="1.1" id="Layer_1" xmlns="http://www.w3.org/2000/svg" xmlns:xlink="http://www.w3.org/1999/xlink" x="0px" y="0px"
	 viewBox="0 0 27 50" style="enable-background:new 0 0 27 50;" xml:space="preserve">
<style type="text/css">
	.st0{fill:#313131;}
</style>
<g transform="translate(-417 -146.999)">
	<g transform="translate(-1108.711 142.504)">
		<g transform="translate(1533.713 23.483)">
			<g transform="translate(7.482 30.745)">
				<g transform="translate(0 17.702)">
					<g transform="translate(26.783)">
						<path class="st0" d="M-23.5-42.2l-0.4,0.7h-0.8l-0.4-0.7l0.4-0.7h0.8L-23.5-42.2z"/>
						<path class="st0" d="M-23.9-41.1h-0.8l-0.4,0.7l0.4,0.7h0.8l0.4-0.7L-23.9-41.1z"/>
						<path class="st0" d="M-23.9-39.4h-0.8l-0.4,0.7l0.4,0.7h0.8l0.4-0.7L-23.9-39.4z"/>
						<path class="st0" d="M-23.9-37.7h-0.8l-0.4,0.7l0.4,0.7h0.8l0.4-0.7L-23.9-37.7z"/>
						<path class="st0" d="M-23.9-36h-0.8l-0.4,0.7l0.4,0.7h0.8l0.4-0.7L-23.9-36z"/>
						<path class="st0" d="M-23.9-34.2h-0.8l-0.4,0.7l0.4,0.7h0.8l0.4-0.7L-23.9-34.2z"/>
						<path class="st0" d="M-23.9-32.5h-0.8l-0.4,0.7l0.4,0.7h0.8l0.4-0.7L-23.9-32.5z"/>
						<path class="st0" d="M-23.9-30.8h-0.8l-0.4,0.7l0.4,0.7h0.8l0.4-0.7L-23.9-30.8z"/>
						<path class="st0" d="M-23.9-29.1h-0.8l-0.4,0.7l0.4,0.7h0.8l0.4-0.7L-23.9-29.1z"/>
						<path class="st0" d="M-23.9-25.6h-0.8l-0.4,0.7l0.4,0.7h0.8l0.4-0.7L-23.9-25.6z"/>
						<path class="st0" d="M-23.9-23.9h-0.8l-0.4,0.7l0.4,0.7h0.8l0.4-0.7L-23.9-23.9z"/>
					</g>
					<g transform="translate(33.479 3.838)">
						<path class="st0" d="M-27.9-45h-0.5l-0.4,0.7l0.4,0.7h0.5V-45z"/>
						<path class="st0" d="M-27.9-43.2h-0.5l-0.4,0.7l0.4,0.7h0.5V-43.2z"/>
						<path class="st0" d="M-27.9-41.5h-0.5l-0.4,0.7l0.4,0.7h0.5V-41.5z"/>
						<path class="st0" d="M-27.9-39.8h-0.5l-0.4,0.7l0.4,0.7h0.5V-39.8z"/>
						<path class="st0" d="M-27.5-36.4h-0.8l-0.4,0.7l0.4,0.7h0.8l0.4-0.7L-27.5-36.4z"/>
						<path class="st0" d="M-27.5-34.6h-0.8l-0.4,0.7l0.4,0.7h0.8l0.4-0.7L-27.5-34.6z"/>
						<path class="st0" d="M-27.5-32.9h-0.8l-0.4,0.7l0.4,0.7h0.8l0.4-0.7L-27.5-32.9z"/>
					</g>
					<g transform="translate(20.087 3.838)">
						<path class="st0" d="M-20.2-45H-21l-0.4,0.7l0.4,0.7h0.8l0.4-0.7L-20.2-45z"/>
						<path class="st0" d="M-20.2-43.2H-21l-0.4,0.7l0.4,0.7h0.8l0.4-0.7L-20.2-43.2z"/>
						<path class="st0" d="M-20.2-41.5H-21l-0.4,0.7l0.4,0.7h0.8l0.4-0.7L-20.2-41.5z"/>
						<path class="st0" d="M-20.2-39.8H-21l-0.4,0.7l0.4,0.7h0.8l0.4-0.7L-20.2-39.8z"/>
						<path class="st0" d="M-20.2-38.1H-21l-0.4,0.7l0.4,0.7h0.8l0.4-0.7L-20.2-38.1z"/>
						<path class="st0" d="M-20.2-36.4H-21l-0.4,0.7L-21-35h0.8l0.4-0.7L-20.2-36.4z"/>
						<path class="st0" d="M-20.2-34.6H-21l-0.4,0.7l0.4,0.7h0.8l0.4-0.7L-20.2-34.6z"/>
						<path class="st0" d="M-20.2-32.9H-21l-0.4,0.7l0.4,0.7h0.8l0.4-0.7L-20.2-32.9z"/>
						<path class="st0" d="M-20.2-31.2H-21l-0.4,0.7l0.4,0.7h0.8l0.4-0.7L-20.2-31.2z"/>
						<path class="st0" d="M-20.2-29.5H-21l-0.4,0.7l0.4,0.7h0.8l0.4-0.7L-20.2-29.5z"/>
						<path class="st0" d="M-20.2-27.7H-21l-0.4,0.7l0.4,0.7h0.8l0.4-0.7L-20.2-27.7z"/>
					</g>
					<g transform="translate(13.392 3.838)">
						<path class="st0" d="M-16.5-45h-0.8l-0.4,0.7l0.4,0.7h0.8l0.4-0.7L-16.5-45z"/>
						<path class="st0" d="M-16.5-43.2h-0.8l-0.4,0.7l0.4,0.7h0.8l0.4-0.7L-16.5-43.2z"/>
						<path class="st0" d="M-16.5-41.5h-0.8l-0.4,0.7l0.4,0.7h0.8l0.4-0.7L-16.5-41.5z"/>
						<path class="st0" d="M-16.5-39.8h-0.8l-0.4,0.7l0.4,0.7h0.8l0.4-0.7L-16.5-39.8z"/>
						<path class="st0" d="M-16.5-38.1h-0.8l-0.4,0.7l0.4,0.7h0.8l0.4-0.7L-16.5-38.1z"/>
						<path class="st0" d="M-16.5-36.4h-0.8l-0.4,0.7l0.4,0.7h0.8l0.4-0.7L-16.5-36.4z"/>
						<path class="st0" d="M-16.5-34.6h-0.8l-0.4,0.7l0.4,0.7h0.8l0.4-0.7L-16.5-34.6z"/>
						<path class="st0" d="M-16.5-32.9h-0.8l-0.4,0.7l0.4,0.7h0.8l0.4-0.7L-16.5-32.9z"/>
						<path class="st0" d="M-16.5-31.2h-0.8l-0.4,0.7l0.4,0.7h0.8l0.4-0.7L-16.5-31.2z"/>
						<path class="st0" d="M-16.5-29.5h-0.8l-0.4,0.7l0.4,0.7h0.8l0.4-0.7L-16.5-29.5z"/>
						<path class="st0" d="M-16.5-27.7h-0.8l-0.4,0.7l0.4,0.7h0.8l0.4-0.7L-16.5-27.7z"/>
					</g>
					<g transform="translate(6.696)">
						<path class="st0" d="M-12.8-42.9h-0.8l-0.4,0.7l0.4,0.7h0.8l0.4-0.7L-12.8-42.9z"/>
						<path class="st0" d="M-12.8-41.1h-0.8l-0.4,0.7l0.4,0.7h0.8l0.4-0.7L-12.8-41.1z"/>
						<path class="st0" d="M-12.8-39.4h-0.8l-0.4,0.7l0.4,0.7h0.8l0.4-0.7L-12.8-39.4z"/>
						<path class="st0" d="M-12.8-37.7h-0.8L-14-37l0.4,0.7h0.8l0.4-0.7L-12.8-37.7z"/>
						<path class="st0" d="M-12.8-36h-0.8l-0.4,0.7l0.4,0.7h0.8l0.4-0.7L-12.8-36z"/>
						<path class="st0" d="M-12.8-34.2h-0.8l-0.4,0.7l0.4,0.7h0.8l0.4-0.7L-12.8-34.2z"/>
						<path class="st0" d="M-12.8-32.5h-0.8l-0.4,0.7l0.4,0.7h0.8l0.4-0.7L-12.8-32.5z"/>
						<path class="st0" d="M-12.8-30.8h-0.8l-0.4,0.7l0.4,0.7h0.8l0.4-0.7L-12.8-30.8z"/>
						<path class="st0" d="M-12.8-29.1h-0.8l-0.4,0.7l0.4,0.7h0.8l0.4-0.7L-12.8-29.1z"/>
						<path class="st0" d="M-12.8-25.6h-0.8l-0.4,0.7l0.4,0.7h0.8l0.4-0.7L-12.8-25.6z"/>
						<path class="st0" d="M-12.8-23.9h-0.8l-0.4,0.7l0.4,0.7h0.8l0.4-0.7L-12.8-23.9z"/>
					</g>
					<g transform="translate(0 3.838)">
						<path class="st0" d="M-9.1-45h-0.5v1.4h0.5l0.4-0.7L-9.1-45z"/>
						<path class="st0" d="M-9.1-43.2h-0.5v1.4h0.5l0.4-0.7L-9.1-43.2z"/>
						<path class="st0" d="M-9.1-41.5h-0.5v1.4h0.5l0.4-0.7L-9.1-41.5z"/>
						<path class="st0" d="M-9.1-39.8h-0.5v1.4h0.5l0.4-0.7L-9.1-39.8z"/>
						<path class="st0" d="M-9.1-36.4h-0.8l-0.4,0.7l0.4,0.7h0.8l0.4-0.7L-9.1-36.4z"/>
						<path class="st0" d="M-9.1-34.6h-0.8l-0.4,0.7l0.4,0.7h0.8l0.4-0.7L-9.1-34.6z"/>
						<path class="st0" d="M-9.1-32.9h-0.8l-0.4,0.7l0.4,0.7h0.8l0.4-0.7L-9.1-32.9z"/>
					</g>
					<g transform="translate(23.435 2.009)">
						<path class="st0" d="M-22-44h-0.8l-0.4,0.7l0.4,0.7h0.8l0.4-0.7L-22-44z"/>
						<path class="st0" d="M-22-42.2h-0.8l-0.4,0.7l0.4,0.7h0.8l0.4-0.7L-22-42.2z"/>
						<path class="st0" d="M-22-40.5h-0.8l-0.4,0.7l0.4,0.7h0.8l0.4-0.7L-22-40.5z"/>
						<path class="st0" d="M-22-38.8h-0.8l-0.4,0.7l0.4,0.7h0.8l0.4-0.7L-22-38.8z"/>
						<path class="st0" d="M-22-37.1h-0.8l-0.4,0.7l0.4,0.7h0.8l0.4-0.7L-22-37.1z"/>
						<path class="st0" d="M-22-35.3h-0.8l-0.4,0.7l0.4,0.7h0.8l0.4-0.7L-22-35.3z"/>
						<path class="st0" d="M-22-33.6h-0.8l-0.4,0.7l0.4,0.7h0.8l0.4-0.7L-22-33.6z"/>
						<path class="st0" d="M-22-31.9h-0.8l-0.4,0.7l0.4,0.7h0.8l0.4-0.7L-22-31.9z"/>
						<path class="st0" d="M-22-30.2h-0.8l-0.4,0.7l0.4,0.7h0.8l0.4-0.7L-22-30.2z"/>
						<path class="st0" d="M-22-28.4h-0.8l-0.4,0.7l0.4,0.7h0.8l0.4-0.7L-22-28.4z"/>
						<path class="st0" d="M-22-26.7h-0.8l-0.4,0.7l0.4,0.7h0.8l0.4-0.7L-22-26.7z"/>
						<path class="st0" d="M-22-25h-0.8l-0.4,0.7l0.4,0.7h0.8l0.4-0.7L-22-25z"/>
					</g>
					<g transform="translate(16.739 5.847)">
						<path class="st0" d="M-18.3-46.1h-0.8l-0.4,0.7l0.4,0.7h0.8l0.4-0.7L-18.3-46.1z"/>
						<path class="st0" d="M-18.3-44.4h-0.8l-0.4,0.7l0.4,0.7h0.8l0.4-0.7L-18.3-44.4z"/>
						<path class="st0" d="M-18.3-42.6h-0.8l-0.4,0.7l0.4,0.7h0.8l0.4-0.7L-18.3-42.6z"/>
						<path class="st0" d="M-18.3-40.9h-0.8l-0.4,0.7l0.4,0.7h0.8l0.4-0.7L-18.3-40.9z"/>
						<path class="st0" d="M-18.3-39.2h-0.8l-0.4,0.7l0.4,0.7h0.8l0.4-0.7L-18.3-39.2z"/>
						<path class="st0" d="M-18.3-37.5h-0.8l-0.4,0.7l0.4,0.7h0.8l0.4-0.7L-18.3-37.5z"/>
						<path class="st0" d="M-18.3-35.7h-0.8l-0.4,0.7l0.4,0.7h0.8l0.4-0.7L-18.3-35.7z"/>
						<path class="st0" d="M-18.3-34h-0.8l-0.4,0.7l0.4,0.7h0.8l0.4-0.7L-18.3-34z"/>
						<path class="st0" d="M-18.3-32.3h-0.8l-0.4,0.7l0.4,0.7h0.8l0.4-0.7L-18.3-32.3z"/>
						<path class="st0" d="M-18.3-30.6h-0.8l-0.4,0.7l0.4,0.7h0.8l0.4-0.7L-18.3-30.6z"/>
						<path class="st0" d="M-18.3-28.8h-0.8l-0.4,0.7l0.4,0.7h0.8l0.4-0.7L-18.3-28.8z"/>
					</g>
					<g transform="translate(10.044 2.009)">
						<path class="st0" d="M-14.6-44h-0.8l-0.4,0.7l0.4,0.7h0.8l0.4-0.7L-14.6-44z"/>
						<path class="st0" d="M-14.6-42.2h-0.8l-0.4,0.7l0.4,0.7h0.8l0.4-0.7L-14.6-42.2z"/>
						<path class="st0" d="M-14.6-40.5h-0.8l-0.4,0.7l0.4,0.7h0.8l0.4-0.7L-14.6-40.5z"/>
						<path class="st0" d="M-14.6-38.8h-0.8l-0.4,0.7l0.4,0.7h0.8l0.4-0.7L-14.6-38.8z"/>
						<path class="st0" d="M-14.6-37.1h-0.8l-0.4,0.7l0.4,0.7h0.8l0.4-0.7L-14.6-37.1z"/>
						<path class="st0" d="M-14.6-35.3h-0.8l-0.4,0.7l0.4,0.7h0.8l0.4-0.7L-14.6-35.3z"/>
						<path class="st0" d="M-14.6-33.6h-0.8l-0.4,0.7l0.4,0.7h0.8l0.4-0.7L-14.6-33.6z"/>
						<path class="st0" d="M-14.6-31.9h-0.8l-0.4,0.7l0.4,0.7h0.8l0.4-0.7L-14.6-31.9z"/>
						<path class="st0" d="M-14.6-30.2h-0.8l-0.4,0.7l0.4,0.7h0.8l0.4-0.7L-14.6-30.2z"/>
						<path class="st0" d="M-14.6-28.4h-0.8l-0.4,0.7l0.4,0.7h0.8l0.4-0.7L-14.6-28.4z"/>
						<path class="st0" d="M-14.6-26.7h-0.8l-0.4,0.7l0.4,0.7h0.8l0.4-0.7L-14.6-26.7z"/>
						<path class="st0" d="M-14.6-25h-0.8l-0.4,0.7l0.4,0.7h0.8l0.4-0.7L-14.6-25z"/>
					</g>
					<g transform="translate(3.348 2.009)">
						<path class="st0" d="M-10.9-44h-0.8l-0.4,0.7l0.4,0.7h0.8l0.4-0.7L-10.9-44z"/>
						<path class="st0" d="M-10.9-42.2h-0.8l-0.4,0.7l0.4,0.7h0.8l0.4-0.7L-10.9-42.2z"/>
						<path class="st0" d="M-10.9-40.5h-0.8l-0.4,0.7l0.4,0.7h0.8l0.4-0.7L-10.9-40.5z"/>
						<path class="st0" d="M-10.9-38.8h-0.8l-0.4,0.7l0.4,0.7h0.8l0.4-0.7L-10.9-38.8z"/>
						<path class="st0" d="M-10.9-37.1h-0.8l-0.4,0.7l0.4,0.7h0.8l0.4-0.7L-10.9-37.1z"/>
						<path class="st0" d="M-10.9-35.3h-0.8l-0.4,0.7l0.4,0.7h0.8l0.4-0.7L-10.9-35.3z"/>
						<path class="st0" d="M-10.9-33.6h-0.8l-0.4,0.7l0.4,0.7h0.8l0.4-0.7L-10.9-33.6z"/>
						<path class="st0" d="M-10.9-31.9h-0.8l-0.4,0.7l0.4,0.7h0.8l0.4-0.7L-10.9-31.9z"/>
						<path class="st0" d="M-10.9-30.2h-0.8l-0.4,0.7l0.4,0.7h0.8l0.4-0.7L-10.9-30.2z"/>
						<path class="st0" d="M-10.9-28.4h-0.8l-0.4,0.7l0.4,0.7h0.8l0.4-0.7L-10.9-28.4z"/>
						<path class="st0" d="M-10.9-26.7h-0.8l-0.4,0.7l0.4,0.7h0.8l0.4-0.7L-10.9-26.7z"/>
					</g>
					<g transform="translate(30.131 2.009)">
						<path class="st0" d="M-25.7-44h-0.8l-0.4,0.7l0.4,0.7h0.8l0.4-0.7L-25.7-44z"/>
						<path class="st0" d="M-25.7-42.2h-0.8l-0.4,0.7l0.4,0.7h0.8l0.4-0.7L-25.7-42.2z"/>
						<path class="st0" d="M-25.7-40.5h-0.8l-0.4,0.7l0.4,0.7h0.8l0.4-0.7L-25.7-40.5z"/>
						<path class="st0" d="M-25.7-38.8h-0.8l-0.4,0.7l0.4,0.7h0.8l0.4-0.7L-25.7-38.8z"/>
						<path class="st0" d="M-25.7-37.1h-0.8l-0.4,0.7l0.4,0.7h0.8l0.4-0.7L-25.7-37.1z"/>
						<path class="st0" d="M-25.7-35.3h-0.8l-0.4,0.7l0.4,0.7h0.8l0.4-0.7L-25.7-35.3z"/>
						<path class="st0" d="M-25.7-33.6h-0.8l-0.4,0.7l0.4,0.7h0.8l0.4-0.7L-25.7-33.6z"/>
						<path class="st0" d="M-25.7-31.9h-0.8l-0.4,0.7l0.4,0.7h0.8l0.4-0.7L-25.7-31.9z"/>
						<path class="st0" d="M-25.7-30.2h-0.8l-0.4,0.7l0.4,0.7h0.8l0.4-0.7L-25.7-30.2z"/>
						<path class="st0" d="M-25.7-28.4h-0.8l-0.4,0.7l0.4,0.7h0.8l0.4-0.7L-25.7-28.4z"/>
						<path class="st0" d="M-25.7-26.7h-0.8l-0.4,0.7l0.4,0.7h0.8l0.4-0.7L-25.7-26.7z"/>
					</g>
				</g>
				<g transform="translate(20.843)">
					<g transform="translate(6.696 3.838)">
						<path class="st0" d="M-24.3-35.2h-0.8l-0.4,0.7l0.4,0.7h0.8l0.4-0.7L-24.3-35.2z"/>
						<path class="st0" d="M-24.3-33.5h-0.8l-0.4,0.7l0.4,0.7h0.8l0.4-0.7L-24.3-33.5z"/>
					</g>
					<g transform="translate(13.392)">
						<path class="st0" d="M-28.3-33.1h-0.5l-0.4,0.7l0.4,0.7h0.5V-33.1z"/>
						<path class="st0" d="M-28.3-31.4h-0.5l-0.4,0.7l0.4,0.7h0.5V-31.4z"/>
						<path class="st0" d="M-28.3-29.7h-0.5l-0.4,0.7l0.4,0.7h0.5V-29.7z"/>
					</g>
					<g transform="translate(0 11.515)">
						<path class="st0" d="M-20.6-39.5h-0.8l-0.4,0.7l0.4,0.7h0.8l0.4-0.7L-20.6-39.5z"/>
					</g>
					<g transform="translate(3.348 5.847)">
						<path class="st0" d="M-22.4-36.3h-0.8l-0.4,0.7l0.4,0.7h0.8l0.4-0.7L-22.4-36.3z"/>
						<path class="st0" d="M-22.4-34.6h-0.8l-0.4,0.7l0.4,0.7h0.8l0.4-0.7L-22.4-34.6z"/>
					</g>
					<g transform="translate(10.044 2.009)">
						<path class="st0" d="M-26.1-34.2h-0.8l-0.4,0.7l0.4,0.7h0.8l0.4-0.7L-26.1-34.2z"/>
						<path class="st0" d="M-26.1-32.5h-0.8l-0.4,0.7l0.4,0.7h0.8l0.4-0.7L-26.1-32.5z"/>
						<path class="st0" d="M-26.1-30.8h-0.8l-0.4,0.7l0.4,0.7h0.8l0.4-0.7L-26.1-30.8z"/>
					</g>
				</g>
				<g transform="translate(0.681)">
					<g transform="translate(5.046 3.838)">
						<path class="st0" d="M-13.5-34.5l0.4,0.7h0.8l0.4-0.7l-0.4-0.7h-0.8L-13.5-34.5z"/>
						<path class="st0" d="M-13.5-32.8l0.4,0.7h0.8l0.4-0.7l-0.4-0.7h-0.8L-13.5-32.8z"/>
					</g>
					<path class="st0" d="M-10.7-31.7h0.5l0.4-0.7l-0.4-0.7h-0.5V-31.7z"/>
					<path class="st0" d="M-10.7-30h0.5l0.4-0.7l-0.4-0.7h-0.5V-30z"/>
					<path class="st0" d="M-10.7-28.3h0.5l0.4-0.7l-0.4-0.7h-0.5V-28.3z"/>
					<g transform="translate(11.741 11.515)">
						<path class="st0" d="M-17.1-38.8l0.4,0.7h0.8l0.4-0.7l-0.4-0.7h-0.8L-17.1-38.8z"/>
					</g>
					<g transform="translate(8.393 5.847)">
						<path class="st0" d="M-15.3-35.6l0.4,0.7h0.8l0.4-0.7l-0.4-0.7h-0.8L-15.3-35.6z"/>
						<path class="st0" d="M-15.3-33.9l0.4,0.7h0.8l0.4-0.7l-0.4-0.7h-0.8L-15.3-33.9z"/>
					</g>
					<g transform="translate(1.698 2.009)">
						<path class="st0" d="M-11.6-33.5l0.4,0.7h0.8l0.4-0.7l-0.4-0.7h-0.8L-11.6-33.5z"/>
						<path class="st0" d="M-11.6-31.8l0.4,0.7h0.8l0.4-0.7l-0.4-0.7h-0.8L-11.6-31.8z"/>
						<path class="st0" d="M-11.6-30.1l0.4,0.7h0.8l0.4-0.7l-0.4-0.7h-0.8L-11.6-30.1z"/>
					</g>
				</g>
			</g>
			<path class="st0" d="M16.4,11c-0.3-1.3-0.5-2.6-0.6-3.9c0-1.8,0.1-4,0.1-6C16-0.6,16.1-2.2,16.1-3h0c0-0.2,0-0.4,0-0.6
				c0-0.5,0-1.1,0-1.7c0.1-3.1,0.1-6.6-0.6-7.6c-0.6-0.9-1.6-1.2-2.4-1.4c-0.2-0.1-0.5-0.1-0.7-0.2c-0.4-0.1-1.5-0.5-4.9-1.7
				c-0.1,0-0.3,0-0.3,0.1c0,0,0,0,0,0.1v0.6c-1.2-0.3-2.5-0.3-3.7,0v-0.6c0-0.1-0.1-0.2-0.2-0.2c0,0-0.1,0-0.1,0
				c-2.6,0.9-4.3,1.5-4.9,1.7c-0.2,0.1-0.4,0.1-0.7,0.2c-0.8,0.2-1.7,0.5-2.4,1.4c-0.7,1-0.6,4.5-0.6,7.6c0,0.6,0,1.2,0,1.7
				c0,0.2,0,0.5,0,0.8c-0.2,0-0.4,0.1-0.5,0.2l0,0v0c0,0.1,0,3.3,0.1,3.9c0,0.4,0.1,0.6,0.3,0.8C-5.1,2.1-5,2.2-4.9,2.2
				c0,0,0.1,0,0.1,0l0,0c-0.6,0-0.7,0.2-0.6,0.8c0,0.2,0,0.7,0,1.2c0,0.8,0,1.8,0.1,2.2C-5.2,6.7-5.2,7-5,7.3c0,1.4-0.2,2.7-0.5,4
				c-0.6,2.8-1.2,5.9,0.1,9.1c1.8,4.2,4.5,6.7,8.1,7.5c0.7,0.2,1.5,0.3,2.3,0.3c0.3,0,0.5,0,0.5,0c0,0,0.2,0,0.5,0
				c0.8,0,1.5-0.1,2.3-0.3c3.6-0.8,6.3-3.3,8.1-7.5C17.8,17.1,17,13.9,16.4,11z M7.5-7.4v-8.6c0,0,0,0,0,0c0,0,0,0,0.1,0
				c3.3,1.1,4.5,1.5,4.9,1.7c0.2,0.1,0.4,0.1,0.7,0.2c0.8,0.2,1.7,0.4,2.3,1.3c0.7,1,0.6,4.4,0.5,7.5c0,0.6,0,1.2,0,1.7
				c0,1.1-0.1,2.8-0.2,4.7c0,0.4-0.1,0.8-0.1,1.3v0c-3.3,2.2-6.4,3.3-9.7,3.3V1.1c0.3-0.1,0.5-0.4,0.5-0.7c0-0.1,0-0.4,0-0.9
				c0-0.6,0-1.3,0-1.5c0-0.5-0.2-0.8-0.5-0.9v-1.8C7-4.8,7.5-5.7,7.5-7.4z M5.5-10.3c0.6,0,1,0.2,1,0.5c0,0.3-0.4,0.5-1,0.5
				s-1-0.2-1-0.5C4.5-10,4.9-10.3,5.5-10.3L5.5-10.3z M4.5-11.2c0-0.3,0.5-0.5,1-0.5s1,0.2,1,0.5s-0.5,0.5-1,0.5S4.5-10.9,4.5-11.2
				L4.5-11.2z M5.5-8.6c0.6,0,1,0.3,1,0.6c0,0.3-0.4,0.6-1,0.6s-1-0.3-1-0.6C4.5-8.3,4.9-8.6,5.5-8.6L5.5-8.6z M5.5-6.8
				c0.6,0,1,0.3,1,0.6c0,0.3-0.4,0.6-1,0.6s-1-0.3-1-0.6S4.9-6.8,5.5-6.8L5.5-6.8z M3.7-15.2c1.2-0.3,2.5-0.2,3.7,0v3.4
				c-0.6-1-2-1.3-3-0.7c-0.3,0.2-0.5,0.4-0.7,0.7V-15.2z M-4.9-3.6c0-0.5,0-1.1,0-1.7C-5-8.4-5-11.9-4.4-12.8
				c0.6-0.9,1.4-1.1,2.3-1.3c0.2-0.1,0.5-0.1,0.7-0.2c0.6-0.2,2.2-0.8,4.9-1.7c0,0,0,0,0.1,0c0,0,0,0,0,0v8.6c0,1.6,0.6,2.5,1.7,2.7
				v1.8C4.8-2.9,4.6-2.5,4.6-2c0,0.2,0,0.9,0,1.5c0,0.4,0,0.8,0,0.9c0,0.3,0.2,0.6,0.5,0.7v4.6c-3.3,0-6.4-1.1-9.7-3.3v0
				c0-0.4-0.1-0.9-0.1-1.3C-4.8-0.8-4.9-2.5-4.9-3.6L-4.9-3.6z M11.9,26c-1.1,0.8-2.2,1.4-3.5,1.7C7.4,27.9,6.5,28,5.5,28v0.1l0,0
				V28c-1,0-2-0.1-2.9-0.3c-1.2-0.3-2.4-0.9-3.4-1.7c-5.5-4.1-4.4-9.5-3.8-12.8c0.1-0.3,0.1-0.5,0.1-0.7c0.4-2,0.2-6.2-0.1-10
				c3.3,2.2,6.5,3.2,9.8,3.2h0.1V0.9H5.2C5,0.8,4.8,0.6,4.8,0.3c0-0.1,0-0.4,0-0.9c0-0.6,0-1.3,0-1.5c0-0.3,0.1-0.7,0.4-0.7h0.1
				v-1.9h0.4v1.9h0.1c0.4,0,0.4,0.4,0.4,0.7c0,0.2,0,0.9,0,1.5c0,0.4,0,0.8,0,0.9c0,0.3-0.1,0.5-0.4,0.6H5.7v4.9h0.1
				c3.3,0,6.5-1,9.8-3.2c-0.2,3.8-0.4,8-0.1,10c0,0.2,0.1,0.5,0.1,0.7C16.3,16.5,17.3,22,11.9,26L11.9,26z"/>
		</g>
	</g>
</g>
<rect x="12.8" class="st0" width="1.3" height="3.6"/>
</svg>
