<?xml version="1.0" encoding="UTF-8"?><svg id="Layer_1" xmlns="http://www.w3.org/2000/svg" viewBox="0 0 48 48"><defs><style>.cls-1{fill:#ffa40d;stroke-width:0px;}</style></defs><path class="cls-1" d="m35.95,42.81c-2.14,2.28-5.6,3.56-9.56,3.56-.27,0-.54,0-.81-.02-4.5-.2-8.61-1.99-10.73-4.67-4.34-5.5-6.35-10.23-6.72-15.79-.25-3.21-.28-3.55,1.15-4.87l1.61-1.41.28,1.46c.84,6.47,4.17,11.92,4.31,12.15.23.38.76.5,1.14.27.39-.24.51-.75.27-1.14-.2-.32-4.74-7.89-4.22-15.35l-.04-.2c0-.49-.02-.96-.04-1.51-.11-3.5-.08-6.95.89-8.52,1.09-1.77,6.03-3.9,9.02-4.78.71-.21,1.49-.2,2.2.03l.89.23v4.7l-.41.24c-.78.45-1.24,1.25-1.24,2.13v3.8c0,.88.46,1.68,1.24,2.13l.41.24v3.19c0,.46.37.83.83.83s.83-.37.83-.83v-3.19l.41-.24c.78-.45,1.24-1.25,1.24-2.13v-3.8c0-.88-.46-1.68-1.24-2.13l-.41-.24V2.22l1.15-.33c.59-.21,1.21-.26,1.82-.16,4.55.78,7.58,2.31,8.31,4.19,1.14,2.94,1.07,7.97,1,13.29-.02,1.56-.04,3.15-.03,4.75,0,1.4.08,2.76.14,4.1.27,5.29.52,10.29-3.67,14.75Z"/></svg>