<?xml version="1.0" encoding="UTF-8"?><svg id="Layer_1" xmlns="http://www.w3.org/2000/svg" viewBox="0 0 48 48"><defs><style>.cls-1{fill:#707070;stroke-width:0px;}</style></defs><path class="cls-1" d="m41.97,27.85l-.83.03c-.07-1.31-.13-2.65-.14-4.01,0-1.58.01-3.17.03-4.72.07-5.49.14-10.67-1.11-13.91C38.58,1.78,32.78.44,30.35.02c-.88-.15-1.8-.07-2.65.23l-.25.09c-.76.27-1.6.28-2.37.02-.54-.18-1.1-.27-1.66-.27-.51,0-1.02.07-1.52.22-2.23.66-8.37,2.94-9.96,5.5-1.26,2.03-1.25,5.78-1.14,9.44v.35c.03.53.04.95.02,1.19-.05.62-.34.86-1.2,1.55-.39.32-.86.7-1.4,1.2l-.2.19c-1.87,1.73-1.99,2.2-1.68,6.21.39,5.92,2.51,10.91,7.07,16.69,2.41,3.05,6.99,5.08,11.95,5.3,4.74.21,9.05-1.3,11.65-4.06,4.68-4.98,4.39-10.56,4.12-15.97l.83-.04Zm-6.15,14.88c-2.14,2.28-5.6,3.56-9.56,3.56-.27,0-.54,0-.81-.02-4.5-.2-8.61-1.99-10.73-4.67-4.34-5.5-6.35-10.23-6.72-15.79-.25-3.21-.28-3.55,1.15-4.87l1.61-1.41.28,1.46c.84,6.47,4.17,11.92,4.31,12.15.23.38.76.5,1.14.27.39-.24.51-.75.27-1.14-.2-.32-4.74-7.89-4.22-15.35l-.04-.2c0-.49-.02-.96-.04-1.51-.11-3.5-.08-6.95.89-8.52,1.09-1.77,6.03-3.9,9.02-4.78.71-.21,1.49-.2,2.2.03l.89.23v4.7l-.41.24c-.78.45-1.24,1.25-1.24,2.13v3.8c0,.88.46,1.68,1.24,2.13l.41.24v3.19c0,.46.37.83.83.83s.83-.37.83-.83v-3.19l.41-.24c.78-.45,1.24-1.25,1.24-2.13v-3.8c0-.88-.46-1.68-1.24-2.13l-.41-.24V2.14l1.15-.33c.59-.21,1.21-.26,1.82-.16,4.55.78,7.58,2.31,8.31,4.19,1.14,2.94,1.07,7.97,1,13.29-.02,1.56-.04,3.15-.03,4.75,0,1.4.08,2.76.14,4.1.27,5.29.52,10.29-3.67,14.75Z"/></svg>