<svg width="16" height="16" viewBox="0 0 16 16" fill="none" xmlns="http://www.w3.org/2000/svg">
<g id="Group 21361">
<path id="Subtraction 8" d="M8 16C6.41775 16 4.87103 15.5308 3.55544 14.6518C2.23985 13.7727 1.21447 12.5233 0.608967 11.0615C0.00346629 9.59966 -0.15496 7.99113 0.153721 6.43928C0.462403 4.88743 1.22433 3.46197 2.34315 2.34315C3.46197 1.22433 4.88743 0.462403 6.43928 0.153721C7.99113 -0.15496 9.59966 0.00346629 11.0615 0.608967C12.5233 1.21447 13.7727 2.23985 14.6518 3.55544C15.5308 4.87103 16 6.41775 16 8C15.9975 10.121 15.1538 12.1543 13.654 13.654C12.1543 15.1538 10.121 15.9975 8 16ZM4.70934 7.41333L3.2 8.9216L6.97173 12.6933L13.76 5.90507L12.2507 4.39574L6.97067 9.67573L4.70934 7.41333Z" fill="#F5F5F5"/>
</g>
</svg>
