<svg width="40" height="40" viewBox="0 0 40 40" fill="none" xmlns="http://www.w3.org/2000/svg">
<g id="Deactivate Profile">
<g id="Clip path group">
<mask id="mask0_315_7341" style="mask-type:luminance" maskUnits="userSpaceOnUse" x="12" y="12" width="16" height="16">
<g id="clip-path">
<path id="Rectangle 6287" d="M28 12H12V28H28V12Z" fill="white"/>
</g>
</mask>
<g mask="url(#mask0_315_7341)">
<g id="Group 14812">
<path id="Path 17075" d="M13.4986 27.4999C13.4986 27.6325 13.5513 27.7598 13.6452 27.8536C13.739 27.9474 13.8662 28.0001 13.9989 28.0001H25.9989C26.1316 28.0001 26.2588 27.9474 26.3526 27.8536C26.4465 27.7598 26.4992 27.6325 26.4992 27.4999V14.5015H13.4986V27.4999ZM14.4992 15.4999H25.4986V26.9996H14.4992V15.4999Z" fill="#707070"/>
<path id="Path 17076" d="M17.0005 16.9995C16.8678 16.9995 16.7405 17.0522 16.6467 17.146C16.5529 17.2398 16.5002 17.3671 16.5002 17.4998V24.9995C16.5002 25.1322 16.5529 25.2594 16.6467 25.3533C16.7405 25.4471 16.8678 25.4998 17.0005 25.4998C17.1331 25.4998 17.2604 25.4471 17.3542 25.3533C17.448 25.2594 17.5007 25.1322 17.5007 24.9995V17.4998C17.5007 17.3671 17.448 17.2398 17.3542 17.146C17.2604 17.0522 17.1331 16.9995 17.0005 16.9995Z" fill="#707070"/>
<path id="Path 17077" d="M20.0001 16.9995C19.8674 16.9995 19.7401 17.0522 19.6463 17.146C19.5525 17.2398 19.4998 17.3671 19.4998 17.4998V24.9995C19.4998 25.1322 19.5525 25.2594 19.6463 25.3533C19.7401 25.4471 19.8674 25.4998 20.0001 25.4998C20.1327 25.4998 20.26 25.4471 20.3538 25.3533C20.4476 25.2594 20.5004 25.1322 20.5004 24.9995V17.4998C20.5004 17.3671 20.4476 17.2398 20.3538 17.146C20.26 17.0522 20.1327 16.9995 20.0001 16.9995Z" fill="#707070"/>
<path id="Path 17078" d="M23.0005 16.9995C22.9348 16.9995 22.8697 17.0125 22.8091 17.0376C22.7484 17.0627 22.6932 17.0996 22.6467 17.146C22.6003 17.1925 22.5634 17.2476 22.5383 17.3083C22.5131 17.369 22.5002 17.4341 22.5002 17.4998V24.9995C22.5002 25.1322 22.5529 25.2594 22.6467 25.3533C22.7406 25.4471 22.8678 25.4998 23.0005 25.4998C23.1331 25.4998 23.2604 25.4471 23.3542 25.3533C23.4481 25.2594 23.5007 25.1322 23.5007 24.9995V17.4998C23.5007 17.4341 23.4878 17.369 23.4626 17.3083C23.4375 17.2476 23.4007 17.1925 23.3542 17.146C23.3078 17.0996 23.2526 17.0627 23.1919 17.0376C23.1312 17.0125 23.0662 16.9995 23.0005 16.9995Z" fill="#707070"/>
<path id="Path 17079" d="M24 13.0005V12.5003C24 12.3676 23.9473 12.2403 23.8535 12.1465C23.7597 12.0527 23.6324 12 23.4997 12H16.5003C16.4346 12 16.3695 12.0129 16.3088 12.0381C16.2481 12.0632 16.193 12.1001 16.1465 12.1465C16.1001 12.193 16.0632 12.2481 16.0381 12.3088C16.0129 12.3695 16 12.4346 16 12.5003V13.0005H12V14.0011H28V13.0005H24Z" fill="#707070"/>
</g>
</g>
</g>
</g>
</svg>
