<?xml version="1.0" encoding="UTF-8"?><svg id="Layer_1" xmlns="http://www.w3.org/2000/svg" viewBox="0 0 48 48"><defs><style>.cls-1{fill:#707070;}</style></defs><path class="cls-1" d="m4.5,46.5c0,.83.67,1.5,1.5,1.5h36c.83,0,1.5-.67,1.5-1.5V7.5s-39,0-39,0v39ZM7.5,10.5h33s0,34.5,0,34.5H7.5s0-34.5,0-34.5Z"/><path class="cls-1" d="m15,15c-.83,0-1.5.67-1.5,1.5v22.5c0,.83.67,1.5,1.5,1.5s1.5-.67,1.5-1.5v-22.5c0-.83-.67-1.5-1.5-1.5Z"/><path class="cls-1" d="m24,15c-.83,0-1.5.67-1.5,1.5v22.5c0,.83.67,1.5,1.5,1.5s1.5-.67,1.5-1.5v-22.5c0-.83-.67-1.5-1.5-1.5Z"/><path class="cls-1" d="m33,15c-.83,0-1.5.67-1.5,1.5v22.5c0,.83.67,1.5,1.5,1.5s1.5-.67,1.5-1.5v-22.5c0-.83-.67-1.5-1.5-1.5Z"/><path class="cls-1" d="m48,3h-12v-1.5c0-.83-.67-1.5-1.5-1.5H13.5c-.83,0-1.5.67-1.5,1.5v1.5H0v3h48v-3Z"/></svg>