<svg width="20" height="20" viewBox="0 0 20 20" fill="none" xmlns="http://www.w3.org/2000/svg">
<g id="Mask group">
<mask id="mask0_236_5412" style="mask-type:alpha" maskUnits="userSpaceOnUse" x="0" y="0" width="20" height="20">
<rect id="Rectangle 6518" width="20" height="20" fill="#D9D9D9"/>
</mask>
<g mask="url(#mask0_236_5412)">
<g id="Group 21255">
<path id="Vector" d="M9.95592 12.6665C8.77444 12.6665 7.67843 13.0426 6.77412 13.6851C6.33059 14.0001 6.27316 14.6526 6.65414 15.0451C6.94775 15.3477 7.40989 15.3932 7.75123 15.1499C8.39454 14.6913 9.15676 14.4443 9.95592 14.4443C10.7551 14.4443 11.5173 14.6913 12.1606 15.1499C12.502 15.3932 12.9641 15.3477 13.2577 15.0451C13.6387 14.6526 13.581 14.0004 13.1377 13.6851C12.2337 13.0426 11.1374 12.6665 9.95592 12.6665Z" fill="#7BFF6F"/>
<path id="Union" fill-rule="evenodd" clip-rule="evenodd" d="M9.97132 8.22403C9.94207 8.22378 9.91274 8.22365 9.88365 8.22365H9.88284L9.88284 8.22551C7.54955 8.26801 5.41697 9.13749 3.74542 10.5595C3.35178 10.8945 3.32023 11.5042 3.68125 11.8759C3.99455 12.1987 4.49605 12.2267 4.83712 11.9354C5.42328 11.4348 6.07145 11.0231 6.77247 10.7067C7.77627 10.2537 8.84667 10.0164 9.954 10.002C9.95981 10.0019 9.96563 10.0018 9.97148 10.0018C9.9779 10.0018 9.98431 10.0019 9.99069 10.002C11.098 10.0165 12.1684 10.2537 13.1722 10.7067C13.8732 11.0231 14.5214 11.4348 15.1076 11.9354C15.4486 12.2265 15.9501 12.1987 16.2634 11.8759C16.6245 11.504 16.5929 10.8942 16.1993 10.5595V10.5592C14.528 9.13723 12.3951 8.26747 10.0618 8.22525L10.0619 8.22363H10.061C10.0313 8.22363 10.0012 8.22377 9.97132 8.22403Z" fill="#7BFF6F"/>
<path id="Vector_2" d="M19.7579 8.16589C19.7555 8.16339 19.753 8.16089 19.7509 8.15839C19.7476 8.15506 19.7444 8.15173 19.7412 8.14867C17.2442 5.58502 13.8 4 9.9965 4C6.19294 4 2.73343 5.59197 0.23511 8.16561L0.238885 8.1695C0.0908625 8.32895 0 8.54506 0 8.78312C0 9.27396 0.386368 9.67203 0.862789 9.67203C1.13187 9.67203 1.37211 9.54508 1.53037 9.34619C2.62315 8.23923 3.88929 7.36755 5.29537 6.75504C6.78341 6.10642 8.36501 5.7778 9.9965 5.7778C11.628 5.7778 13.2096 6.10642 14.6976 6.75504C16.1358 7.38171 17.4278 8.27923 18.5376 9.42258H18.5381C18.6934 9.57702 18.9045 9.6723 19.1372 9.6723C19.6136 9.6723 20 9.27424 20 8.7834C20 8.5434 19.9075 8.3259 19.7576 8.16617L19.7579 8.16589Z" fill="#7BFF6F"/>
</g>
</g>
</g>
</svg>
