<?xml version="1.0" encoding="UTF-8"?><svg id="Layer_1" xmlns="http://www.w3.org/2000/svg" viewBox="0 0 48 48"><defs><style>.cls-1{fill:#f5f5f5;}</style></defs><path class="cls-1" d="m22.94,38.56s0,0,0,0c.02.02.03.03.05.05,0,0,.02.02.03.02,0,0,.02.02.03.02.01,0,.02.02.04.03,0,0,.01.01.02.02.01,0,.03.02.04.03,0,0,.01,0,.02.01.01,0,.03.02.04.03,0,0,.01,0,.02.01.01,0,.03.02.04.02,0,0,.01,0,.02.01.01,0,.03.01.04.02,0,0,.02,0,.03.01.01,0,.02.01.04.02.01,0,.02,0,.03.01.01,0,.02,0,.03.01.01,0,.02,0,.04.01,0,0,.02,0,.03,0,.01,0,.03,0,.04.01,0,0,.02,0,.03,0,.01,0,.03,0,.04.01,0,0,.02,0,.02,0,.02,0,.03,0,.05.01,0,0,.02,0,.03,0,.02,0,.03,0,.05,0,0,0,.02,0,.03,0,.01,0,.03,0,.04,0,.01,0,.03,0,.04,0,.01,0,.02,0,.03,0,.02,0,.05,0,.07,0h0s0,0,0,0c.02,0,.05,0,.07,0,.01,0,.02,0,.04,0,.01,0,.03,0,.04,0,.01,0,.03,0,.04,0,0,0,.02,0,.03,0,.02,0,.03,0,.05,0,0,0,.02,0,.02,0,.02,0,.03,0,.05-.01,0,0,.02,0,.02,0,.02,0,.03,0,.05-.01,0,0,.02,0,.03,0,.01,0,.03,0,.04-.01,0,0,.02,0,.03,0,.01,0,.03,0,.04-.01.01,0,.02,0,.03-.01.01,0,.02,0,.03-.01.01,0,.02-.01.04-.02,0,0,.02,0,.03-.01.01,0,.03-.01.04-.02,0,0,.02,0,.02-.01.01,0,.03-.02.04-.02,0,0,.01,0,.02-.01.01,0,.03-.02.04-.03,0,0,.01-.01.02-.02.01,0,.03-.02.04-.03,0,0,.02-.01.02-.02.01,0,.02-.02.03-.03.01,0,.02-.02.03-.03,0,0,.02-.01.02-.02.02-.02.04-.03.05-.05l8.25-8.25c.59-.59.59-1.54,0-2.12-.59-.59-1.54-.59-2.12,0l-5.69,5.69V1.5c0-.83-.67-1.5-1.5-1.5s-1.5.67-1.5,1.5v32.38l-5.69-5.69c-.59-.59-1.54-.59-2.12,0-.59.59-.59,1.54,0,2.12l8.25,8.25Z"/><path class="cls-1" d="m46.5,34.5c-.83,0-1.5.67-1.5,1.5v9H3v-9c0-.83-.67-1.5-1.5-1.5s-1.5.67-1.5,1.5v9.75c0,1.24,1.01,2.25,2.25,2.25h43.5c1.24,0,2.25-1.01,2.25-2.25v-9.75c0-.83-.67-1.5-1.5-1.5Z"/></svg>