<svg xmlns="http://www.w3.org/2000/svg" xmlns:xlink="http://www.w3.org/1999/xlink" width="20" height="20" viewBox="0 0 20 20">
  <defs>
    <clipPath id="clip-path">
      <rect id="Rectangle_6356" data-name="Rectangle 6356" width="20" height="20" fill="#f5f5f5"/>
    </clipPath>
  </defs>
  <g id="Mask_Group_14862" data-name="Mask Group 14862" clip-path="url(#clip-path)">
    <path id="Path_17186" data-name="Path 17186" d="M18.75,0H1.25A1.25,1.25,0,0,0,0,1.25v17.5A1.25,1.25,0,0,0,1.25,20h17.5A1.25,1.25,0,0,0,20,18.75V1.25A1.25,1.25,0,0,0,18.75,0m0,18.75H1.25V1.25h17.5Z" fill="#f5f5f5"/>
    <path id="Path_17187" data-name="Path 17187" d="M134.875,132.063h1.25v-1.25h-1.25V128h-6.25a.625.625,0,0,0-.625.625v6.25h6.875Zm-1.25,1.563H129.25V129.25h4.375Z" transform="translate(-125.5 -125.5)" fill="#f5f5f5"/>
    <path id="Path_17188" data-name="Path 17188" d="M550.875,128.625a.625.625,0,0,0-.625-.625H544v6.875h6.875Zm-1.25,5H545.25V129.25h4.375Z" transform="translate(-533.375 -125.5)" fill="#f5f5f5"/>
    <path id="Path_17189" data-name="Path 17189" d="M548.568,480h-1.25v1.25h-2.8v6.875h6.25a.625.625,0,0,0,.625-.625v-6.25h-2.823Zm1.573,6.875h-4.375V482.5h4.375Z" transform="translate(-533.881 -470.625)" fill="#f5f5f5"/>
    <path id="Path_17190" data-name="Path 17190" d="M136.125,484.063h-1.25V481.25h-2.813V480h-1.25v1.25H128v6.25a.625.625,0,0,0,.625.625h6.25v-2.812h1.25Zm-2.5,2.813H129.25V482.5h4.375Z" transform="translate(-125.5 -470.625)" fill="#f5f5f5"/>
  </g>
</svg>
