<svg xmlns="http://www.w3.org/2000/svg" width="20" height="20" viewBox="0 0 20 20">
  <path id="Subtraction_3" data-name="Subtraction 3" d="M10,3314a10,10,0,1,1,10-10A10.012,10.012,0,0,1,10,3314Zm1.75-14.146a.746.746,0,0,0-.531.219.755.755,0,0,0,0,1.061L14.086,3304l-2.864,2.866a.751.751,0,1,0,1.063,1.06l3.313-3.314a.741.741,0,0,0,.212-.621.749.749,0,0,0-.215-.6l-3.314-3.315A.747.747,0,0,0,11.75,3299.854Zm-3.814.209a.75.75,0,0,0-.531,1.28l2.549,2.552L7.4,3306.448a.751.751,0,0,0,1.063,1.061l2.893-2.9a1.425,1.425,0,0,0,0-1.434l-2.893-2.9A.747.747,0,0,0,7.935,3300.063Zm-3,1.449a.75.75,0,0,0-.525,1.286l1.2,1.2L4.4,3305.211a.75.75,0,0,0,1.063,1.06l1.658-1.659a.979.979,0,0,0,0-1.223l-1.551-1.553-.112-.109A.749.749,0,0,0,4.933,3301.513Z" transform="translate(0 -3294)" fill="#707070"/>
</svg>
