<svg xmlns="http://www.w3.org/2000/svg" width="40" height="26.659" viewBox="0 0 40 26.659">
  <path id="Path_17245" data-name="Path 17245" d="M27.623,3.809c-6.881,0-11.345,6.4-18.1,6.4-2.986,0-5.06-1.208-5.7-2.316a.191.191,0,0,1,.02-.206.182.182,0,0,1,.23-.053,8.464,8.464,0,0,0,3.537.856C15.1,8.492,19.242,0,28.564,0c5.844,0,8.783,2.364,9.249,6.273.187,1.568.419,3.125.785,4.84a40.717,40.717,0,0,0,1.361,4.724.535.535,0,0,1-.337.717s-.853.3-1.148.391a.517.517,0,0,0-.321.631c.764,4.977.11,9.083-3.875,9.083-4.053,0-4.495-5.715-11.236-5.715a.187.187,0,0,1-.152-.3c2.936-3.508,4.766-9.212,9.761-9.212a7.868,7.868,0,0,1,3.5.648.192.192,0,0,0,.21-.053.213.213,0,0,0,.027-.211A5.91,5.91,0,0,0,31.8,9.9c-8.94,0-8.81,12.949-21.329,12.949-4.059,0-8.283-1.983-9.692-4.676a.183.183,0,0,1,.037-.22.179.179,0,0,1,.23-.028,13.87,13.87,0,0,0,7.521,2.542A10.3,10.3,0,0,0,17.1,16.486a.19.19,0,0,0-.247-.275,13.188,13.188,0,0,1-5.433.929C5.766,17.139,1.38,14.86.016,11.695a.19.19,0,0,1,.271-.242,15.038,15.038,0,0,0,7.33,1.877c9.866,0,12.91-8.122,20.948-8.122a16.062,16.062,0,0,1,3.568.5.191.191,0,0,0,.218-.093.2.2,0,0,0-.051-.241,6.6,6.6,0,0,0-4.676-1.563" fill="#707070"/>
</svg>
