<svg width="23" height="20" viewBox="0 0 23 20" fill="none" xmlns="http://www.w3.org/2000/svg">
<g id="Group 21082">
<path id="Vector" d="M0 4.80605V15.3941C0 16.0378 0.523886 16.5617 1.16762 16.5617H6.36861L6.70666 15.4029H1.16762C1.16284 15.4029 1.1588 15.3988 1.1588 15.3941V4.80605C1.1588 4.80109 1.16284 4.79723 1.16762 4.79723H8.35166L9.4531 3.63843H1.16762C0.523886 3.63843 0 4.16231 0 4.80605Z" fill="#F5F5F5"/>
<path id="Vector_2" d="M21.7553 6.71777H21.1582V4.80605C21.1582 4.16231 20.6345 3.63843 19.9906 3.63843H15.9061L15.5644 4.79723H19.9906C19.9956 4.79723 19.9994 4.80109 19.9994 4.80605V6.71777H19.9906V13.1882H19.9994V15.3941C19.9994 15.3988 19.9956 15.4029 19.9906 15.4029H13.8003L12.7021 16.5617H19.9906C20.6345 16.5617 21.1582 16.0378 21.1582 15.3941V13.1882H21.7553C22.0801 13.1882 22.3435 12.9248 22.3435 12.6V7.306C22.3435 6.98119 22.0801 6.71777 21.7553 6.71777Z" fill="#F5F5F5"/>
<path id="Vector_3" d="M18.275 8.35742C18.1649 8.10191 17.9138 7.93684 17.6355 7.93684L13.424 7.93831L14.3499 4.79757L14.6917 3.63877L15.4999 0.897105C15.5926 0.588288 15.4637 0.259618 15.185 0.0963867C14.9047 -0.0681318 14.5523 -0.0183167 14.3282 0.21734L11.0761 3.63877L9.97466 4.79757L4.19427 10.8791C4.00218 11.0811 3.94906 11.3772 4.05898 11.6335C4.16891 11.8897 4.42 12.0553 4.69886 12.0553H8.91292L7.93666 15.4032L7.59861 16.562L6.85745 19.1039C6.76517 19.4131 6.89477 19.7415 7.17417 19.9044C7.28446 19.9688 7.40578 20 7.52582 20C7.71184 20 7.89511 19.9248 8.0304 19.7816L11.0814 16.562L12.1796 15.4032L18.1421 9.11127C18.3331 8.90888 18.3853 8.61293 18.275 8.35742ZM10.5588 15.4032L9.4607 16.562L8.54124 17.5322L8.82414 16.562L9.162 15.4032L10.4815 10.8789H5.81758L11.5978 4.79757L12.6992 3.63877L13.8095 2.4706L13.465 3.63877L13.1235 4.79757L11.8505 9.11531L16.519 9.11366L10.5588 15.4032Z" fill="#7BFF6F"/>
</g>
</svg>
