<svg width="47" height="17" viewBox="0 0 47 17" fill="none" xmlns="http://www.w3.org/2000/svg">
    <path d="M46.6916 4.60487C46.6916 5.74936 46.0478 6.76162 45.0118 7.24723L44.999 7.25316L38.6523 10.1527H38.6519L38.0523 10.4263L36.8959 10.9547L35.1404 11.7568L33.3735 12.5639L24.5765 16.5828C24.1852 16.7647 23.7653 16.8559 23.3458 16.8559C22.9263 16.8559 22.5059 16.7647 22.1147 16.5828L13.318 12.5643L11.5512 11.7568L9.79566 10.9547L8.7492 10.4764L8.03925 10.1527L1.67935 7.24723C0.643377 6.76162 0 5.74936 0 4.60487C0 3.46038 0.643377 2.44812 1.67935 1.96251L1.69257 1.95658L5.97552 0L7.73284 0.801601L9.4897 1.60274L2.91822 4.60487L11.5512 8.54857L13.3071 9.35063L15.0626 10.1527L23.3458 13.9368L23.3586 13.9309L31.629 10.1527L33.3845 9.35063L35.1404 8.54857L43.7729 4.60487L37.2183 1.6105L38.9752 0.808896L40.7325 0.00775215L45.0118 1.96251C46.0478 2.44812 46.6916 3.46083 46.6916 4.60487Z" fill="#707070"/>
</svg>
