<svg width="47" height="59" viewBox="0 0 47 59" fill="none" xmlns="http://www.w3.org/2000/svg">
    <path d="M45.0118 9.60848L24.576 0.2729C23.7936 -0.0909665 22.898 -0.0909665 22.1156 0.2729L1.69257 9.60255L1.67935 9.60848C0.643377 10.0941 0 11.1073 0 12.2508C0 13.3944 0.643377 14.4076 1.67935 14.8932L6.63121 17.1553L9.46964 18.4521L11.2256 19.2541L12.9806 20.0562L14.5469 20.7716L21.6136 23.9999L22.1142 24.2288C22.5054 24.4107 22.9254 24.5019 23.3453 24.5019C23.7653 24.5019 24.1839 24.4112 24.5751 24.2292L25.0767 23.9999L32.1716 20.7588L33.7096 20.0562L35.4651 19.2541L37.221 18.4521L40.0873 17.1425L44.9986 14.8991L45.0113 14.8932C46.0473 14.4076 46.6911 13.3953 46.6911 12.2508C46.6911 11.1064 46.0473 10.0941 45.0113 9.60848H45.0118ZM31.9541 17.65L30.1986 18.4521L23.3586 21.5768L23.3458 21.5828L16.493 18.4521L14.7375 17.65L12.9815 16.848L2.91822 12.2508L23.3326 2.92529L23.3458 2.91891L43.7729 12.2508L33.71 16.848L31.9541 17.65Z"/>
    <path d="M46.6916 29.6049C46.6916 30.7494 46.0478 31.7616 45.0118 32.2472L44.999 32.2532L38.6523 35.1527H38.6519L38.0523 35.4263L36.8959 35.9547L35.1404 36.7568L33.3735 37.5639L24.5765 41.5828C24.1852 41.7647 23.7653 41.8559 23.3458 41.8559C22.9263 41.8559 22.5059 41.7647 22.1147 41.5828L13.318 37.5643L11.5512 36.7568L9.79566 35.9547L8.7492 35.4764L8.03925 35.1527L1.67935 32.2472C0.643377 31.7616 0 30.7494 0 29.6049C0 28.4604 0.643377 27.4481 1.67935 26.9625L1.69257 26.9566L5.97552 25L7.73284 25.8016L9.4897 26.6027L2.91822 29.6049L11.5512 33.5486L13.3071 34.3506L15.0626 35.1527L23.3458 38.9368L23.3586 38.9309L31.629 35.1527L33.3845 34.3506L35.1404 33.5486L43.7729 29.6049L37.2183 26.6105L38.9752 25.8089L40.7325 25.0078L45.0118 26.9625C46.0478 27.4481 46.6916 28.4608 46.6916 29.6049Z" />
    <path d="M46.6916 46.6049C46.6916 47.7494 46.0478 48.7616 45.0118 49.2472L44.999 49.2532L38.6523 52.1527H38.6519L38.0523 52.4263L36.8959 52.9547L35.1404 53.7568L33.3735 54.5639L24.5765 58.5828C24.1852 58.7647 23.7653 58.8559 23.3458 58.8559C22.9263 58.8559 22.5059 58.7647 22.1147 58.5828L13.318 54.5643L11.5512 53.7568L9.79566 52.9547L8.7492 52.4764L8.03925 52.1527L1.67935 49.2472C0.643377 48.7616 0 47.7494 0 46.6049C0 45.4604 0.643377 44.4481 1.67935 43.9625L1.69257 43.9566L5.97552 42L7.73284 42.8016L9.4897 43.6027L2.91822 46.6049L11.5512 50.5486L13.3071 51.3506L15.0626 52.1527L23.3458 55.9368L23.3586 55.9309L31.629 52.1527L33.3845 51.3506L35.1404 50.5486L43.7729 46.6049L37.2183 43.6105L38.9752 42.8089L40.7325 42.0078L45.0118 43.9625C46.0478 44.4481 46.6916 45.4608 46.6916 46.6049Z" />
</svg>
