<?xml version="1.0" encoding="UTF-8"?><svg id="Layer_1" xmlns="http://www.w3.org/2000/svg" viewBox="0 0 48 48"><defs><style>.cls-1{fill:#262626;stroke-width:0px;}</style></defs><g id="Clock"><path class="cls-1" d="m24,2.67C12.22,2.67,2.67,12.22,2.67,24s9.55,21.33,21.33,21.33,21.33-9.55,21.33-21.33S35.78,2.67,24,2.67Zm13.2,34.53c-1.72,1.72-3.71,3.06-5.93,4-2.3.97-4.74,1.47-7.27,1.47s-4.97-.49-7.27-1.47c-2.22-.94-4.22-2.29-5.93-4-1.72-1.72-3.06-3.71-4-5.93-.97-2.3-1.47-4.74-1.47-7.27s.49-4.97,1.47-7.27c.94-2.22,2.29-4.22,4-5.93,1.72-1.72,3.71-3.06,5.93-4,2.3-.97,4.74-1.47,7.27-1.47s4.97.49,7.27,1.47c2.22.94,4.22,2.29,5.93,4,1.72,1.72,3.06,3.71,4,5.93.97,2.3,1.47,4.74,1.47,7.27s-.49,4.97-1.47,7.27c-.94,2.22-2.29,4.22-4,5.93Z"/><path class="cls-1" d="m33.43,22.67h-7.12c-.23-.4-.57-.74-.98-.98v-10.36c0-.74-.6-1.33-1.33-1.33s-1.33.6-1.33,1.33v10.36c-.8.46-1.33,1.32-1.33,2.31,0,1.47,1.19,2.67,2.67,2.67.99,0,1.85-.54,2.31-1.33h7.12c.74,0,1.33-.6,1.33-1.33s-.6-1.33-1.33-1.33Z"/></g></svg>