<?xml version="1.0" encoding="UTF-8"?><svg id="Layer_1" xmlns="http://www.w3.org/2000/svg" viewBox="0 0 48 48"><defs><style>.cls-1{fill:#262626;stroke-width:0px;}</style></defs><g id="Timer"><path class="cls-1" d="m40.48,13.12c.41-.47.66-1.08.66-1.76,0-1.47-1.19-2.67-2.67-2.67-.73,0-1.38.29-1.86.76-.14-.1-.27-.2-.41-.29.17-.35.27-.75.27-1.17,0-1.47-1.19-2.67-2.67-2.67-.99,0-1.86.54-2.32,1.35-1.93-.72-4-1.18-6.15-1.31v-2.71h4c.74,0,1.33-.6,1.33-1.33s-.6-1.33-1.33-1.33h-10.67c-.74,0-1.33.6-1.33,1.33s.6,1.33,1.33,1.33h4v2.71C11.51,6.06,2.67,15.33,2.67,26.67s9.55,21.33,21.33,21.33,21.33-9.55,21.33-21.33c0-5.14-1.82-9.86-4.85-13.54Zm-3.28,26.74c-1.72,1.72-3.71,3.06-5.93,4-2.3.97-4.74,1.47-7.26,1.47s-4.97-.49-7.26-1.47c-2.22-.94-4.22-2.29-5.93-4-1.72-1.72-3.06-3.71-4-5.93-.97-2.3-1.47-4.74-1.47-7.27s.49-4.97,1.47-7.26c.94-2.22,2.29-4.22,4-5.93,1.71-1.71,3.71-3.06,5.93-4,2.3-.97,4.74-1.47,7.26-1.47s4.97.49,7.26,1.47c.15.07.31.13.46.2.65.3,1.28.63,1.89.99.84.51,1.64,1.08,2.4,1.71h0c.41.35.81.71,1.19,1.09.14.14.27.28.41.42h0c1.52,1.62,2.73,3.47,3.59,5.51.97,2.3,1.47,4.74,1.47,7.26s-.49,4.97-1.47,7.27c-.94,2.22-2.29,4.22-4,5.93Z"/><path class="cls-1" d="m26.58,27.36c.06-.22.09-.45.09-.69,0-.99-.54-1.85-1.33-2.31v-10.36c0-.74-.6-1.33-1.33-1.33s-1.33.6-1.33,1.33v10.36c-.8.46-1.33,1.32-1.33,2.31,0,1.47,1.19,2.67,2.67,2.67.24,0,.47-.03.69-.09l5.03,5.03c.26.26.6.39.94.39s.68-.13.94-.39c.52-.52.52-1.36,0-1.89l-5.03-5.03Z"/></g></svg>