<?xml version="1.0" encoding="UTF-8"?><svg id="Layer_1" xmlns="http://www.w3.org/2000/svg" viewBox="0 0 48 48"><defs><style>.cls-1{fill:#262626;stroke-width:0px;}</style></defs><path class="cls-1" d="m24,0C10.75,0,0,10.75,0,24s10.75,24,24,24,24-10.75,24-24S37.25,0,24,0Zm14.85,38.85c-1.93,1.93-4.18,3.44-6.68,4.5-2.59,1.09-5.34,1.65-8.17,1.65s-5.59-.55-8.17-1.65c-2.5-1.06-4.75-2.57-6.68-4.5-1.93-1.93-3.44-4.18-4.5-6.68-1.09-2.59-1.65-5.34-1.65-8.17s.55-5.59,1.65-8.17c1.06-2.5,2.57-4.75,4.5-6.68,1.93-1.93,4.18-3.44,6.68-4.5,2.59-1.09,5.34-1.65,8.17-1.65s5.59.55,8.17,1.65c2.5,1.06,4.75,2.57,6.68,4.5,1.93,1.93,3.44,4.18,4.5,6.68,1.09,2.59,1.65,5.34,1.65,8.17s-.55,5.59-1.65,8.17c-1.06,2.5-2.57,4.75-4.5,6.68Z"/><circle class="cls-1" cx="24" cy="24" r="10.5"/></svg>