<?xml version="1.0" encoding="UTF-8"?><svg id="Layer_1" xmlns="http://www.w3.org/2000/svg" viewBox="0 0 48 48"><defs><style>.cls-1{fill:#f5f5f5;stroke-width:0px;}</style></defs><g id="Toggle"><path class="cls-1" d="m34.8,37.2H13.2c-1.78,0-3.51-.35-5.14-1.04-1.57-.66-2.98-1.62-4.2-2.83-1.21-1.21-2.16-2.62-2.83-4.2C.35,27.51,0,25.78,0,24s.35-3.51,1.04-5.14c.66-1.57,1.62-2.98,2.83-4.2,1.21-1.21,2.62-2.16,4.2-2.83,1.63-.69,3.36-1.04,5.14-1.04h21.6c1.78,0,3.51.35,5.14,1.04,1.57.66,2.98,1.62,4.2,2.83,1.21,1.21,2.16,2.62,2.83,4.2.69,1.63,1.04,3.36,1.04,5.14s-.35,3.51-1.04,5.14c-.66,1.57-1.62,2.98-2.83,4.2-1.21,1.21-2.62,2.16-4.2,2.83-1.63.69-3.36,1.04-5.14,1.04ZM13.2,13.2c-2.88,0-5.6,1.12-7.64,3.16-2.04,2.04-3.16,4.75-3.16,7.64s1.12,5.6,3.16,7.64c2.04,2.04,4.75,3.16,7.64,3.16h21.6c2.88,0,5.6-1.12,7.64-3.16,2.04-2.04,3.16-4.75,3.16-7.64s-1.12-5.6-3.16-7.64c-2.04-2.04-4.75-3.16-7.64-3.16H13.2Z"/><circle class="cls-1" cx="34.8" cy="24" r="8.4"/></g></svg>