<?xml version="1.0" encoding="UTF-8"?><svg id="Layer_1" xmlns="http://www.w3.org/2000/svg" viewBox="0 0 48 48"><defs><style>.cls-1{fill:#f5f5f5;stroke-width:0px;}</style></defs><path class="cls-1" d="m46.96,18.86c-.66-1.57-1.62-2.98-2.83-4.2s-2.62-2.16-4.2-2.83c-1.63-.69-3.36-1.04-5.14-1.04H13.2c-1.78,0-3.51.35-5.14,1.04-1.57.66-2.98,1.62-4.2,2.83-1.21,1.21-2.16,2.62-2.83,4.2C.35,20.49,0,22.22,0,24s.35,3.51,1.04,5.14c.66,1.57,1.62,2.98,2.83,4.2,1.21,1.21,2.62,2.16,4.2,2.83,1.63.69,3.36,1.04,5.14,1.04h21.6c1.78,0,3.51-.35,5.14-1.04,1.57-.66,2.98-1.62,4.2-2.83,1.21-1.21,2.16-2.62,2.83-4.2.69-1.63,1.04-3.36,1.04-5.14s-.35-3.51-1.04-5.14Zm-4.53,12.78c-2.04,2.04-4.75,3.16-7.64,3.16H13.2c-2.88,0-5.6-1.12-7.64-3.16-2.04-2.04-3.16-4.75-3.16-7.64s1.12-5.6,3.16-7.64,4.75-3.16,7.64-3.16h21.6c2.88,0,5.6,1.12,7.64,3.16,2.04,2.04,3.16,4.75,3.16,7.64s-1.12,5.6-3.16,7.64Z"/><path class="cls-1" d="m40.8,23.99s0-.02,0-.02c0,0,0-.02,0-.02,0,0,0,0,0-.01,0,0,0-.01,0-.02,0,0,0-.02,0-.02,0,0,0-.01,0-.02,0,0,0-.01,0-.02,0,0,0-.01,0-.02,0,0,0-.01,0-.02,0,0,0,0,0,0,0,0,0-.01,0-.02,0,0,0-.01,0-.02,0-.01,0-.03,0-.04,0,0,0-.01,0-.02,0-.01,0-.03-.01-.04,0,0,0-.01,0-.02,0-.01,0-.02-.01-.04,0,0,0-.01,0-.02,0,0,0,0,0,0,0,0,0,0,0-.01,0,0,0-.01,0-.02,0,0,0-.01,0-.02,0,0,0-.01,0-.02,0,0,0,0,0-.01,0,0,0-.02-.01-.02,0,0,0,0,0-.01,0,0,0,0,0-.01,0,0,0-.02-.01-.03,0,0,0-.02-.01-.02,0-.01-.01-.02-.02-.03,0,0,0-.01-.01-.02,0-.01-.01-.02-.02-.03,0,0,0,0,0,0,0,0,0,0,0,0,0,0-.01-.02-.02-.03,0,0,0,0,0,0,0,0,0,0,0,0,0,0-.01-.02-.02-.03,0,0,0,0,0-.01,0,0,0,0,0-.01,0,0-.01-.01-.02-.02,0,0,0,0-.01-.01,0,0,0,0,0,0l-4.46-4.8c-.45-.49-1.21-.51-1.7-.06-.49.45-.51,1.21-.06,1.7l2.58,2.78H8.4c-.66,0-1.2.54-1.2,1.2s.54,1.2,1.2,1.2h28.45l-2.58,2.78c-.45.49-.42,1.24.06,1.7.23.21.52.32.82.32.32,0,.64-.13.88-.38l4.46-4.8s0,0,0,0c0,0,0,0,0-.01,0,0,.01-.02.02-.02,0,0,0,0,0-.01,0,0,0,0,0,0,0,0,.01-.02.02-.03,0,0,0,0,0-.01,0,0,0,0,0,0,0,0,.01-.02.02-.03,0,0,0-.01.01-.02,0-.01.01-.02.02-.03,0,0,0-.01.01-.02,0,0,.01-.02.02-.03,0,0,0-.02.01-.02,0,0,0-.02.01-.03,0,0,0-.02.01-.03,0,0,0-.02.01-.03,0,0,0,0,0,0,0,0,0,0,0-.01,0,0,0-.01,0-.02,0,0,0-.02,0-.02,0,0,0-.01,0-.02,0,0,0-.01,0-.02,0,0,0-.01,0-.02,0,0,0-.01,0-.02,0,0,0,0,0-.01,0,0,0,0,0,0,0,0,0-.01,0-.02,0-.01,0-.02,0-.04,0,0,0-.01,0-.02,0-.01,0-.03,0-.04,0,0,0-.01,0-.02,0,0,0,0,0,0,0,0,0,0,0-.01,0,0,0-.01,0-.02,0,0,0-.01,0-.02,0,0,0-.01,0-.02,0,0,0-.01,0-.02,0,0,0-.02,0-.02,0,0,0-.01,0-.02,0,0,0,0,0-.01,0,0,0-.02,0-.02,0,0,0-.02,0-.02,0,0,0,0,0,0s0,0,0,0Z"/></svg>