<svg id="Group_14910" data-name="Group 14910" xmlns="http://www.w3.org/2000/svg" xmlns:xlink="http://www.w3.org/1999/xlink" width="20" height="20" viewBox="0 0 20 20">
  <defs>
    <clipPath id="clip-path">
      <rect id="Rectangle_6313" data-name="Rectangle 6313" width="20" height="20" fill="#f5f5f5"/>
    </clipPath>
  </defs>
  <g id="Group_14864" data-name="Group 14864" clip-path="url(#clip-path)">
    <path id="Path_17086" data-name="Path 17086" d="M18.75,1.25h0v17.5H1.25V1.25Zm0-1.25H1.25A1.25,1.25,0,0,0,0,1.25v17.5A1.25,1.25,0,0,0,1.25,20h17.5A1.25,1.25,0,0,0,20,18.75V1.25A1.25,1.25,0,0,0,18.75,0" fill="#f5f5f5"/>
    <path id="Path_17087" data-name="Path 17087" d="M141.75,141.75h-12.5v-12.5h12.5Zm.625-13.75h-13.75a.625.625,0,0,0-.625.625v13.75a.625.625,0,0,0,.625.625h13.75a.625.625,0,0,0,.625-.625v-13.75a.625.625,0,0,0-.625-.625" transform="translate(-125.5 -125.5)" fill="#f5f5f5"/>
    <rect id="Rectangle_6312" data-name="Rectangle 6312" width="10" height="10" transform="translate(5 5)" fill="#f5f5f5"/>
  </g>
</svg>
