<svg xmlns="http://www.w3.org/2000/svg" width="13.714" height="16" viewBox="0 0 13.714 16">
  <path id="hourglass-split" d="M2.571,17a.571.571,0,1,1,0-1.143H3.714V14.714a5.143,5.143,0,0,1,2.923-4.641A.8.8,0,0,0,7.143,9.4V8.6a.8.8,0,0,0-.506-.674,5.143,5.143,0,0,1-2.922-4.64V2.143H2.571A.571.571,0,1,1,2.571,1H15.143a.571.571,0,0,1,0,1.143H14V3.286a5.143,5.143,0,0,1-2.923,4.641.8.8,0,0,0-.505.674v.8a.8.8,0,0,0,.506.674A5.143,5.143,0,0,1,14,14.714v1.143h1.143a.571.571,0,1,1,0,1.143ZM4.857,2.143V3.286A3.968,3.968,0,0,0,5.242,5h7.23a3.985,3.985,0,0,0,.385-1.714V2.143ZM8.286,9.4A1.938,1.938,0,0,1,7.13,11.105a4,4,0,0,0-2.273,3.609,4.611,4.611,0,0,1,3.429-1.691Zm1.143,0v3.623a4.611,4.611,0,0,1,3.429,1.691,4,4,0,0,0-2.273-3.609A1.936,1.936,0,0,1,9.429,9.4Z" transform="translate(-2 -1)" fill="#ffac26"/>
</svg>
