<svg width="16" height="16" viewBox="0 0 16 16" fill="none" xmlns="http://www.w3.org/2000/svg">
<g id="Group 21348">
<g id="Ellipse 201">
<g id="Group 14871">
<path id="i" d="M7.99515 5.86988C7.41515 5.86988 7.02515 5.48988 7.02515 4.99988C7.02515 4.50988 7.41515 4.12988 7.99515 4.12988C8.57515 4.12988 8.96515 4.48988 8.96515 4.96988C8.96515 5.48988 8.57515 5.86988 7.99515 5.86988ZM7.21515 11.9999V6.61988H8.77515V11.9999H7.21515Z" fill="#707070"/>
<path id="Vector (Stroke)" fill-rule="evenodd" clip-rule="evenodd" d="M8 1C4.13401 1 1 4.13401 1 8C1 11.866 4.13401 15 8 15C11.866 15 15 11.866 15 8C15 4.13401 11.866 1 8 1ZM0 8C0 3.58172 3.58172 0 8 0C12.4183 0 16 3.58172 16 8C16 12.4183 12.4183 16 8 16C3.58172 16 0 12.4183 0 8Z" fill="#707070"/>
</g>
</g>
</g>
</svg>
