<?xml version="1.0" encoding="UTF-8"?><svg id="Layer_1" xmlns="http://www.w3.org/2000/svg" viewBox="0 0 48 48"><defs><style>.cls-1{fill:#f5f5f5;}</style></defs><path class="cls-1" d="m43.63,6.75l2.12,2.12,1.81-1.81c.28-.28.44-.66.44-1.06,0-1.66-.67-3.16-1.76-4.24-1.09-1.09-2.59-1.76-4.24-1.76-.4,0-.78.16-1.06.44l-1.81,1.81,2.12,2.12,2.38,2.38Z"/><path class="cls-1" d="m41.64,9h0l-2.68-2.68h0l-1.95-1.95L.44,40.94c-.14.14-.25.31-.32.49C.04,41.61,0,41.8,0,42v6h6c.4,0,.78-.16,1.06-.44L43.63,10.99l-1.99-1.99ZM5.38,45h-2.38v-2.38l3.53-3.53,2.38,2.38-3.53,3.53Zm2.21-6.97l29.36-29.36,2.43,2.33-29.42,29.42-2.38-2.38Z"/><polygon class="cls-1" points="14.25 48 48 48 48 43.5 18.75 43.5 14.25 48"/></svg>