<svg xmlns="http://www.w3.org/2000/svg" width="13.5" height="8.293" viewBox="0 0 13.5 8.293">
  <g id="Group_14916" data-name="Group 14916" transform="translate(102.642 43.238) rotate(180)">
    <path id="Line_318" data-name="Line 318" d="M12,.75H0A.75.75,0,0,1-.75,0,.75.75,0,0,1,0-.75H12a.75.75,0,0,1,.75.75A.75.75,0,0,1,12,.75Z" transform="translate(89.892 39.091)" fill="#f5f5f5"/>
    <path id="Path_16592" data-name="Path 16592" d="M-17689,8591.595a.746.746,0,0,1-.529-.22.75.75,0,0,1,0-1.061l3.313-3.314a.75.75,0,0,1,1.061,0,.75.75,0,0,1,0,1.061l-3.312,3.314A.751.751,0,0,1-17689,8591.595Z" transform="translate(17779 -8551.836)" fill="#f5f5f5"/>
    <path id="Path_16593" data-name="Path 16593" d="M-17685.687,8591.595a.751.751,0,0,1-.531-.22l-3.314-3.314a.753.753,0,0,1,0-1.061.752.752,0,0,1,1.063,0l3.314,3.314a.753.753,0,0,1,0,1.061A.751.751,0,0,1-17685.687,8591.595Z" transform="translate(17779.002 -8548.357)" fill="#f5f5f5"/>
  </g>
</svg>
