<?xml version="1.0" encoding="UTF-8"?><svg id="Layer_1" xmlns="http://www.w3.org/2000/svg" viewBox="0 0 48 48"><defs><style>.cls-1{fill:#ffa40d;}</style></defs><g id="Group_14777"><path id="Path_17060" class="cls-1" d="m29.12,21h17.38c.83,0,1.5-.67,1.5-1.5V1.5C48,.67,47.33,0,46.5,0h-18C27.67,0,27,.67,27,1.5v17.38l-3,3-5.09-5.09c3.47-4.64,2.52-11.22-2.12-14.69C12.14-1.37,5.56-.42,2.09,4.22-1.38,8.86-.43,15.44,4.21,18.91c3.73,2.79,8.84,2.79,12.57,0l10.21,10.21v17.38c0,.83.67,1.5,1.5,1.5h18c.83,0,1.5-.67,1.5-1.5v-18c0-.83-.67-1.5-1.5-1.5h-17.38l-3-3,3-3Zm.88-18h15v15h-15V3ZM2.99,10.5c0-4.14,3.36-7.5,7.5-7.5s7.5,3.36,7.5,7.5-3.36,7.5-7.5,7.5-7.5-3.36-7.5-7.5m42.01,34.5h-15v-15h15v15Z"/></g></svg>