<svg width="20" height="20" viewBox="0 0 20 20" fill="none" xmlns="http://www.w3.org/2000/svg">
<path id="Vector" d="M19.4344 12.34L17.6502 10.826C17.6778 10.5582 17.6914 10.2881 17.6914 10.0158C17.6914 9.75977 17.6793 9.50547 17.6549 9.25332L19.4664 7.71602C19.6971 7.52031 19.7549 7.1875 19.6037 6.92539L17.4157 3.13047C17.2645 2.86836 16.9477 2.75215 16.6631 2.8543L14.4301 3.65547C14.0172 3.35801 13.5762 3.10234 13.1102 2.89043L12.6795 0.514258C12.6256 0.216602 12.3666 0 12.0643 0H7.68792C7.38558 0 7.12659 0.216602 7.07269 0.514258L6.64202 2.89043C6.19163 3.09531 5.76448 3.34102 5.36312 3.62578L3.05687 2.79824C2.7723 2.69609 2.4555 2.8125 2.30452 3.07461L0.116046 6.86934C-0.0351257 7.13144 0.0226868 7.46426 0.253156 7.65977L2.09984 9.22715C2.07386 9.48789 2.06077 9.75078 2.06077 10.0158C2.06077 10.2447 2.07054 10.4723 2.09007 10.6979L0.220929 12.2842C-0.00953976 12.4799 -0.0673523 12.8125 0.0838196 13.0746L2.2721 16.8693C2.42308 17.1314 2.73987 17.2479 3.02444 17.1457L5.27132 16.3396C5.67991 16.6387 6.11644 16.8967 6.57776 17.1117L7.00804 19.4857C7.06194 19.7836 7.32093 20 7.62327 20H11.9996C12.302 20 12.561 19.7836 12.6149 19.4857L13.0336 17.1754C13.5155 16.9625 13.9707 16.7033 14.3969 16.4002L16.6307 17.2018C16.9153 17.3037 17.2321 17.1875 17.383 16.9254L19.5715 13.1307C19.7227 12.8686 19.6649 12.5357 19.4344 12.34ZM12.9698 10C12.9698 11.7254 11.5674 13.1289 9.84378 13.1289C8.12015 13.1289 6.7178 11.7254 6.7178 10C6.7178 8.27461 8.12015 6.87109 9.84378 6.87109C11.5674 6.87109 12.9698 8.27461 12.9698 10Z" fill="#FFA40D"/>
</svg>
