<?xml version="1.0" encoding="UTF-8"?><svg id="Layer_1" xmlns="http://www.w3.org/2000/svg" viewBox="0 0 48 48"><defs><style>.cls-1{fill:#f5f5f5;}</style></defs><g id="Group_14778"><path id="Path_17064" class="cls-1" d="m39.16,9.82c-.85-1.92-2.07-3.66-3.59-5.12-1.52-1.47-3.3-2.63-5.25-3.44-4.05-1.68-8.6-1.68-12.65,0-.12.05-.24.1-.36.16-1.81.8-3.46,1.91-4.88,3.28-1.52,1.46-2.74,3.2-3.59,5.12-.88,1.98-1.34,4.13-1.34,6.3,0,4.35,2.08,8.72,5.72,11.99l1.22,1.1.03-.04c.19.2.36.41.53.63.09.12.18.25.27.38.82,1.25,1.24,2.69,1.24,4.31v7.83c0,.07,0,.13,0,.2,0,.53.08,1.87,1.15,2.74.05.04.12.1.2.17.89.77,2.98,2.58,6.15,2.58v-3c-1.74,0-3.01-.87-3.81-1.53,3.62-.32,7.02-3.04,8.31-4.19v3.03c0,.08,0,.17,0,.25,0,.13-.02.26-.07.38-.08.06-.15.13-.24.21-.75.65-2.14,1.85-4.19,1.85v3c3.16,0,5.25-1.81,6.15-2.58.08-.07.15-.13.2-.17,1.06-.87,1.16-2.21,1.15-2.74,0-.07,0-.13,0-.2v-7.83c0-1.79.51-3.36,1.51-4.69.16-.22.34-.43.53-.63l.03.04,1.22-1.1c3.63-3.27,5.72-7.64,5.72-11.99,0-2.17-.45-4.32-1.34-6.3m-19.66,28.43h7.89c-1.31,1.15-4.65,3.75-7.89,3.75v-3.75Zm13.36-12.44c-.79.53-4.36,3.21-4.37,8.68v.76h-8.99v-.77c0-5.47-3.58-8.15-4.37-8.68-2.95-2.69-4.64-6.21-4.64-9.68s1.42-6.76,4.01-9.26c1.25-1.21,2.71-2.16,4.31-2.83,3.31-1.38,7.04-1.38,10.35,0,1.6.66,3.06,1.62,4.31,2.83,2.59,2.5,4.01,5.79,4.01,9.26s-1.69,6.99-4.64,9.68"/><path id="Path_17065" class="cls-1" d="m24,12.75c-2.49,0-4.5,2.01-4.5,4.5,0,2.2,1.59,4.07,3.75,4.44v10.56h1.5v-10.56c2.45-.41,4.1-2.73,3.69-5.19-.37-2.17-2.24-3.75-4.44-3.75"/></g></svg>