<?xml version="1.0" encoding="UTF-8"?><svg id="Layer_1" xmlns="http://www.w3.org/2000/svg" viewBox="0 0 48 48"><defs><style>.cls-1{fill:#ffa40d;}</style></defs><path id="Path_17066" class="cls-1" d="m15.11,48c-.94,0-1.7-.75-1.7-1.68,0-.16.02-.32.07-.48l5.02-16.92h-10.29c-.94,0-1.7-.75-1.7-1.67,0-.43.17-.84.47-1.15L31.72.52c.65-.67,1.72-.7,2.4-.06.47.43.64,1.09.46,1.69l-5.07,16.9h10.29c.94,0,1.7.74,1.7,1.67,0,.43-.17.84-.46,1.15l-24.7,25.61c-.32.33-.77.52-1.23.52m-.85-2.47h0s0,0,0,0Zm-3.32-19.42h11.39l-4.74,15.97,19.49-20.21h-11.4s4.78-15.94,4.78-15.94L10.93,26.11Z"/></svg>