<?xml version="1.0" encoding="UTF-8"?><svg id="Layer_1" xmlns="http://www.w3.org/2000/svg" viewBox="0 0 48 48"><defs><style>.cls-1{fill:#f5f5f5;}</style></defs><g id="Group_14776"><path id="Path_17061" class="cls-1" d="m31.03,15.39h0c.32-.26.37-.74.11-1.06-.07-.09-.16-.16-.27-.21-.15-.07-.3-.14-.45-.2-8.39-3.6-18.07.38-21.62,8.88-.76,1.82-1.19,3.76-1.29,5.73-.02.42.3.78.71.8.41.02.77-.3.79-.72.4-8.39,7.44-14.87,15.73-14.46,1.9.09,3.77.55,5.51,1.36.26.12.56.08.78-.1"/><path id="Path_17062" class="cls-1" d="m46.56,21c-.71-1.97-1.66-3.83-2.84-5.55-.11-.16-.32-.2-.48-.08-.02.01-.04.03-.05.05h0s-1.35,1.69-1.35,1.69c-.2.25-.22.61-.05.88,4.15,6.68,4.31,15.14.41,21.98H5.81C0,29.79,3.44,16.77,13.48,10.89c6.75-3.96,15.11-3.79,21.71.42.27.17.62.15.87-.05l1.66-1.37h0c.14-.14.14-.36.01-.5-.02-.02-.03-.03-.05-.05C26.8,1.68,11.84,4.42,4.28,15.45c-5.49,8.02-5.72,18.58-.58,26.84h0c.27.44.75.71,1.27.71h38.06c.51,0,.99-.27,1.27-.71h0c3.96-6.36,4.79-14.22,2.26-21.29"/><path id="Path_17063" class="cls-1" d="m33.39,17.47l-11.26,9.27c-.22.2-.42.43-.58.68-.37.61-.53,1.32-.46,2.03.17,1.74,1.69,3.01,3.41,2.85.79-.08,1.53-.46,2.05-1.07l9.15-11.41.97-1.2,2.88-3.59,1.29-1.61.05-.06.06-.06c.31-.31.31-.81,0-1.13-.31-.31-.8-.32-1.11,0,0,0,0,0,0,0l-.06.06-.06.05-1.59,1.31-3.54,2.92-1.19.98Z"/></g></svg>