<?xml version="1.0" encoding="UTF-8"?><svg id="Layer_1" xmlns="http://www.w3.org/2000/svg" viewBox="0 0 48 48"><defs><style>.cls-1{fill:#ffa40d;}</style></defs><path id="Path_17069" class="cls-1" d="m24,3.51l21,18.81v22.67h-11.25v-7.63c-.06-1.47-.38-2.84-.94-4.07-.53-1.18-1.31-2.23-2.27-3.09-1.76-1.57-4.09-2.44-6.54-2.44s-4.78.87-6.54,2.44c-.96.86-1.74,1.91-2.27,3.09-.56,1.23-.88,2.6-.94,4.07v.06s0,7.57,0,7.57H3v-22.67L24,3.51ZM24,0c-.36,0-.71.13-.99.37L.51,20.53C.19,20.81,0,21.22,0,21.66v24.84c0,.83.67,1.5,1.5,1.5h14.25c.83,0,1.5-.67,1.5-1.5h0v-9.01c.18-4.48,3.46-6.72,6.75-6.72,3.29,0,6.57,2.24,6.75,6.72v9.01c0,.83.67,1.5,1.5,1.5h14.25c.83,0,1.5-.67,1.5-1.5h0v-24.84c0-.43-.19-.84-.51-1.13L24.99.37C24.71.13,24.36,0,24,0"/></svg>