<?xml version="1.0" encoding="UTF-8"?><svg id="Layer_1" xmlns="http://www.w3.org/2000/svg" viewBox="0 0 48 48"><defs><style>.cls-1{fill:#f5f5f5;}</style></defs><g id="Group_14779"><path id="Path_17067" class="cls-1" d="m42.73,24.04c0-.61-.03-1.22-.09-1.83l4.32-3.69c.55-.47.69-1.27.33-1.9l-5.22-9.11c-.36-.63-1.12-.91-1.8-.66l-5.33,1.92c-.99-.71-2.04-1.33-3.15-1.84l-1.03-5.7C30.64.52,30.02,0,29.3,0h-10.45c-.72,0-1.34.52-1.47,1.23l-1.03,5.7c-1.07.49-2.09,1.08-3.05,1.76l-5.51-1.99c-.68-.24-1.44.03-1.8.66L.78,16.49c-.36.63-.22,1.43.33,1.9l4.41,3.76c-.06.63-.09,1.26-.09,1.89,0,.55.02,1.1.07,1.64l-4.46,3.81c-.55.47-.69,1.27-.33,1.9l5.22,9.11c.36.63,1.12.91,1.8.66l5.36-1.93c.98.72,2.02,1.34,3.12,1.85l1.03,5.7c.13.71.75,1.23,1.47,1.23h10.45c.72,0,1.34-.52,1.47-1.23l1-5.55c1.14-.51,2.23-1.13,3.25-1.86l5.33,1.92c.68.24,1.44-.03,1.8-.66l5.22-9.11c.36-.63.22-1.43-.33-1.9l-4.26-3.63c.07-.65.1-1.29.1-1.94m1.28,7.06l-3.98,6.94-2.56-.92-3.15-1.14-1.53,1.18c-1.18.8-2.46,1.43-3.82,1.88l-.59,3.28-.48,2.68h-7.96l-.5-2.76-.6-3.32c-.56-.2-1.11-.43-1.65-.7h0c-.72-.36-1.42-.77-2.08-1.23-.51-.36-1-.75-1.46-1.17l-3.13,1.13-2.64.95-3.98-6.94,2.19-1.87,2.56-2.18c-.1-.54-.17-1.08-.21-1.62-.03-.41-.05-.83-.05-1.25,0-.46.02-.92.06-1.38.05-.58.13-1.16.24-1.73l-2.54-2.17-2.18-1.86,3.98-6.93,2.73.98,3.15,1.14c.41-.36.83-.69,1.28-1,.71-.5,1.45-.94,2.23-1.31.54-.26,1.08-.48,1.65-.67l.6-3.3.5-2.8h7.96l.5,2.8.6,3.3c.56.19,1.11.42,1.65.67.72.34,1.41.74,2.07,1.19h0c.53.36,1.04.76,1.53,1.19l3.14-1.13,2.58-.93,3.98,6.93-2.09,1.78-2.55,2.17c.12.63.21,1.27.25,1.92h0c.03.38.04.75.04,1.13,0,.37-.01.73-.04,1.1-.05.69-.14,1.38-.27,2.06l2.54,2.17,2.04,1.74Z"/><path id="Path_17068" class="cls-1" d="m24,31.51c-4.11,0-7.46-3.37-7.46-7.51s3.35-7.51,7.46-7.51,7.46,3.37,7.46,7.51-3.35,7.51-7.46,7.51m0-12.02c-2.48,0-4.49,2.01-4.49,4.5,0,2.49,2,4.51,4.48,4.52s4.49-2.01,4.49-4.5c0,0,0,0,0,0,0-2.49-2-4.5-4.48-4.51"/></g><g id="Group_14779-2"><path id="Path_17067-2" class="cls-1" d="m42.73,24.04c0-.61-.03-1.22-.09-1.83l4.32-3.69c.55-.47.69-1.27.33-1.9l-5.22-9.11c-.36-.63-1.12-.91-1.8-.66l-5.33,1.92c-.99-.71-2.04-1.33-3.15-1.84l-1.03-5.7C30.64.52,30.02,0,29.3,0h-10.45c-.72,0-1.34.52-1.47,1.23l-1.03,5.7c-1.07.49-2.09,1.08-3.05,1.76l-5.51-1.99c-.68-.24-1.44.03-1.8.66L.78,16.49c-.36.63-.22,1.43.33,1.9l4.41,3.76c-.06.63-.09,1.26-.09,1.89,0,.55.02,1.1.07,1.64l-4.46,3.81c-.55.47-.69,1.27-.33,1.9l5.22,9.11c.36.63,1.12.91,1.8.66l5.36-1.93c.98.72,2.02,1.34,3.12,1.85l1.03,5.7c.13.71.75,1.23,1.47,1.23h10.45c.72,0,1.34-.52,1.47-1.23l1-5.55c1.14-.51,2.23-1.13,3.25-1.86l5.33,1.92c.68.24,1.44-.03,1.8-.66l5.22-9.11c.36-.63.22-1.43-.33-1.9l-4.26-3.63c.07-.65.1-1.29.1-1.94m1.28,7.06l-3.98,6.94-2.56-.92-3.15-1.14-1.53,1.18c-1.18.8-2.46,1.43-3.82,1.88l-.59,3.28-.48,2.68h-7.96l-.5-2.76-.6-3.32c-.56-.2-1.11-.43-1.65-.7h0c-.72-.36-1.42-.77-2.08-1.23-.51-.36-1-.75-1.46-1.17l-3.13,1.13-2.64.95-3.98-6.94,2.19-1.87,2.56-2.18c-.1-.54-.17-1.08-.21-1.62-.03-.41-.05-.83-.05-1.25,0-.46.02-.92.06-1.38.05-.58.13-1.16.24-1.73l-2.54-2.17-2.18-1.86,3.98-6.93,2.73.98,3.15,1.14c.41-.36.83-.69,1.28-1,.71-.5,1.45-.94,2.23-1.31.54-.26,1.08-.48,1.65-.67l.6-3.3.5-2.8h7.96l.5,2.8.6,3.3c.56.19,1.11.42,1.65.67.72.34,1.41.74,2.07,1.19h0c.53.36,1.04.76,1.53,1.19l3.14-1.13,2.58-.93,3.98,6.93-2.09,1.78-2.55,2.17c.12.63.21,1.27.25,1.92h0c.03.38.04.75.04,1.13,0,.37-.01.73-.04,1.1-.05.69-.14,1.38-.27,2.06l2.54,2.17,2.04,1.74Z"/><path id="Path_17068-2" class="cls-1" d="m24,31.51c-4.11,0-7.46-3.37-7.46-7.51s3.35-7.51,7.46-7.51,7.46,3.37,7.46,7.51-3.35,7.51-7.46,7.51m0-12.02c-2.48,0-4.49,2.01-4.49,4.5,0,2.49,2,4.51,4.48,4.52s4.49-2.01,4.49-4.5c0,0,0,0,0,0,0-2.49-2-4.5-4.48-4.51"/></g><g id="Group_14779-3"><path id="Path_17067-3" class="cls-1" d="m42.73,24.04c0-.61-.03-1.22-.09-1.83l4.32-3.69c.55-.47.69-1.27.33-1.9l-5.22-9.11c-.36-.63-1.12-.91-1.8-.66l-5.33,1.92c-.99-.71-2.04-1.33-3.15-1.84l-1.03-5.7C30.64.52,30.02,0,29.3,0h-10.45c-.72,0-1.34.52-1.47,1.23l-1.03,5.7c-1.07.49-2.09,1.08-3.05,1.76l-5.51-1.99c-.68-.24-1.44.03-1.8.66L.78,16.49c-.36.63-.22,1.43.33,1.9l4.41,3.76c-.06.63-.09,1.26-.09,1.89,0,.55.02,1.1.07,1.64l-4.46,3.81c-.55.47-.69,1.27-.33,1.9l5.22,9.11c.36.63,1.12.91,1.8.66l5.36-1.93c.98.72,2.02,1.34,3.12,1.85l1.03,5.7c.13.71.75,1.23,1.47,1.23h10.45c.72,0,1.34-.52,1.47-1.23l1-5.55c1.14-.51,2.23-1.13,3.25-1.86l5.33,1.92c.68.24,1.44-.03,1.8-.66l5.22-9.11c.36-.63.22-1.43-.33-1.9l-4.26-3.63c.07-.65.1-1.29.1-1.94m1.28,7.06l-3.98,6.94-2.56-.92-3.15-1.14-1.53,1.18c-1.18.8-2.46,1.43-3.82,1.88l-.59,3.28-.48,2.68h-7.96l-.5-2.76-.6-3.32c-.56-.2-1.11-.43-1.65-.7h0c-.72-.36-1.42-.77-2.08-1.23-.51-.36-1-.75-1.46-1.17l-3.13,1.13-2.64.95-3.98-6.94,2.19-1.87,2.56-2.18c-.1-.54-.17-1.08-.21-1.62-.03-.41-.05-.83-.05-1.25,0-.46.02-.92.06-1.38.05-.58.13-1.16.24-1.73l-2.54-2.17-2.18-1.86,3.98-6.93,2.73.98,3.15,1.14c.41-.36.83-.69,1.28-1,.71-.5,1.45-.94,2.23-1.31.54-.26,1.08-.48,1.65-.67l.6-3.3.5-2.8h7.96l.5,2.8.6,3.3c.56.19,1.11.42,1.65.67.72.34,1.41.74,2.07,1.19h0c.53.36,1.04.76,1.53,1.19l3.14-1.13,2.58-.93,3.98,6.93-2.09,1.78-2.55,2.17c.12.63.21,1.27.25,1.92h0c.03.38.04.75.04,1.13,0,.37-.01.73-.04,1.1-.05.69-.14,1.38-.27,2.06l2.54,2.17,2.04,1.74Z"/><path id="Path_17068-3" class="cls-1" d="m24,31.51c-4.11,0-7.46-3.37-7.46-7.51s3.35-7.51,7.46-7.51,7.46,3.37,7.46,7.51-3.35,7.51-7.46,7.51m0-12.02c-2.48,0-4.49,2.01-4.49,4.5,0,2.49,2,4.51,4.48,4.52s4.49-2.01,4.49-4.5c0,0,0,0,0,0,0-2.49-2-4.5-4.48-4.51"/></g></svg>