<svg id="Group_14911" data-name="Group 14911" xmlns="http://www.w3.org/2000/svg" xmlns:xlink="http://www.w3.org/1999/xlink" width="20" height="20" viewBox="0 0 20 20">
  <defs>
    <clipPath id="clip-path">
      <rect id="Rectangle_6315" data-name="Rectangle 6315" width="20" height="20" fill="#f5f5f5"/>
    </clipPath>
  </defs>
  <g id="Group_14869" data-name="Group 14869" clip-path="url(#clip-path)">
    <path id="Path_17088" data-name="Path 17088" d="M18.75,1.25h0v17.5H1.25V1.25Zm0-1.25H1.25A1.25,1.25,0,0,0,0,1.25v17.5A1.25,1.25,0,0,0,1.25,20h17.5A1.25,1.25,0,0,0,20,18.75V1.25A1.25,1.25,0,0,0,18.75,0" fill="#f5f5f5"/>
    <rect id="Rectangle_6314" data-name="Rectangle 6314" width="5" height="10" transform="translate(5 5)" fill="#f5f5f5"/>
    <path id="Path_17089" data-name="Path 17089" d="M141.751,141.75h-12.5v-12.5h12.5Zm.938-13.75H128.626a.625.625,0,0,0-.625.625v13.75a.625.625,0,0,0,.625.625h14.063a.313.313,0,0,0,.313-.312V128.313a.313.313,0,0,0-.312-.312" transform="translate(-125.501 -125.5)" fill="#f5f5f5"/>
  </g>
</svg>
