<?xml version="1.0" encoding="UTF-8"?><svg id="Layer_1" xmlns="http://www.w3.org/2000/svg" viewBox="0 0 48 48"><defs><style>.cls-1{fill:#f5f5f5;}.cls-2{fill:#707070;}</style></defs><g id="Toggle"><path class="cls-2" d="m24,3c11.58,0,21,9.42,21,21s-9.42,21-21,21S3,35.58,3,24,12.42,3,24,3M24,0C10.75,0,0,10.75,0,24s10.75,24,24,24,24-10.75,24-24S37.25,0,24,0h0Z"/><path class="cls-1" d="m27.83,18.41c0-1.84-1.56-3-3.92-3s-4.1,1.05-5.27,2.77l-4.39-2.66c1.96-3.07,5.37-5.03,10.28-5.03,5.45,0,9.22,2.51,9.22,6.94,0,6-6.1,6.67-6.1,10.65h-5.48c0-5.25,5.66-6.41,5.66-9.67Zm-6.39,15.68c0-1.91,1.45-3.34,3.49-3.34s3.49,1.43,3.49,3.34-1.45,3.41-3.49,3.41-3.49-1.54-3.49-3.41Z"/></g></svg>