<?xml version="1.0" encoding="UTF-8"?><svg id="Layer_1" xmlns="http://www.w3.org/2000/svg" viewBox="0 0 48 48"><defs><style>.cls-1{fill:#262626;}</style></defs><path class="cls-1" d="m39.53,10.68s-.03-.02-.04-.03c-3.95-4.02-9.51-6.52-15.59-6.54V.83c0-.71-.83-1.09-1.36-.62l-5.33,4.67c-.37.33-.38.91,0,1.24l5.31,4.74c.53.47,1.37.1,1.37-.61v-3.39c2.57,0,5.12.52,7.46,1.51,2.28.96,4.32,2.35,6.08,4.1,1.76,1.76,3.14,3.81,4.1,6.09,1,2.36,1.5,4.87,1.5,7.45s-.51,5.09-1.5,7.45c-.96,2.28-2.34,4.33-4.1,6.09-1.76,1.76-3.8,3.14-6.08,4.1-2.36,1-4.86,1.5-7.44,1.5s-5.09-.51-7.44-1.5c-2.28-.96-4.32-2.34-6.08-4.1-1.76-1.76-3.14-3.81-4.1-6.09-1-2.36-1.5-4.87-1.5-7.45h0c0-2.49.47-4.91,1.4-7.21.8-1.98,1.92-3.79,3.33-5.4.47-.54.45-1.36-.06-1.87-.56-.56-1.47-.53-1.99.07C.15,19.93.24,32.49,7.74,40.72c8.84,9.7,23.5,9.7,32.34,0,7.77-8.53,7.59-21.73-.55-30.04Z"/></svg>