<?xml version="1.0" encoding="UTF-8"?><svg id="Layer_1" xmlns="http://www.w3.org/2000/svg" viewBox="0 0 48 48"><defs><style>.cls-1{fill:#f5f5f5;}</style></defs><path class="cls-1" d="m15.75,11.25c.38,0,.77-.15,1.06-.44l5.69-5.69v32.38c0,.83.67,1.5,1.5,1.5s1.5-.67,1.5-1.5V5.12l5.69,5.69c.29.29.68.44,1.06.44s.77-.15,1.06-.44c.59-.59.59-1.54,0-2.12L25.06.44s-.04-.04-.06-.05c0,0-.01-.01-.02-.02-.01-.01-.02-.02-.04-.03-.01,0-.02-.02-.03-.02,0,0-.02-.01-.03-.02-.01,0-.02-.02-.04-.03,0,0-.02-.01-.02-.02-.01,0-.03-.02-.04-.02,0,0-.02,0-.02-.01-.01,0-.03-.02-.04-.02,0,0-.02,0-.03-.01-.01,0-.03-.01-.04-.02,0,0-.02,0-.03-.01-.01,0-.02-.01-.03-.02-.01,0-.02,0-.03-.01-.01,0-.02,0-.03-.01-.01,0-.03,0-.04-.01,0,0-.02,0-.03,0-.01,0-.03,0-.04-.01,0,0-.02,0-.03,0-.02,0-.03,0-.05-.01,0,0-.02,0-.02,0-.02,0-.03,0-.05-.01,0,0-.02,0-.02,0-.02,0-.03,0-.05,0,0,0-.02,0-.03,0-.01,0-.03,0-.04,0-.01,0-.03,0-.04,0-.01,0-.02,0-.03,0-.05,0-.1,0-.15,0-.01,0-.02,0-.03,0-.01,0-.03,0-.04,0-.01,0-.03,0-.04,0-.01,0-.02,0-.03,0-.02,0-.03,0-.04,0,0,0-.02,0-.03,0-.02,0-.03,0-.05,0,0,0-.02,0-.03,0-.01,0-.03,0-.04.01,0,0-.02,0-.03,0-.01,0-.03,0-.04.01-.01,0-.02,0-.03.01-.01,0-.02,0-.04.01-.01,0-.02,0-.03.01-.01,0-.02,0-.03.01-.01,0-.03.01-.04.02,0,0-.02,0-.02.01-.01,0-.03.01-.04.02,0,0-.01,0-.02.01-.01,0-.03.02-.04.02,0,0-.01,0-.02.01-.01,0-.03.02-.04.03,0,0-.01,0-.02.01-.01,0-.03.02-.04.03,0,0-.01.01-.02.02-.01,0-.03.02-.04.03,0,0-.02.01-.02.02-.01,0-.02.02-.03.03-.02.01-.03.03-.04.04,0,0,0,0,0,0l-8.25,8.25c-.59.59-.59,1.54,0,2.12.29.29.68.44,1.06.44Z"/><path class="cls-1" d="m46.5,34.5c-.83,0-1.5.67-1.5,1.5v9H3v-9c0-.83-.67-1.5-1.5-1.5S0,35.17,0,36v9.75C0,46.99,1.01,48,2.25,48h43.5c1.24,0,2.25-1.01,2.25-2.25v-9.75c0-.83-.67-1.5-1.5-1.5Z"/></svg>