<?xml version="1.0" encoding="UTF-8"?><svg id="Layer_1" xmlns="http://www.w3.org/2000/svg" viewBox="0 0 48 48"><defs><style>.cls-1{fill:#f5f5f5;stroke-width:0px;}</style></defs><path class="cls-1" d="m38.54,28.72h0c-.35-1.66-.55-3.32-.61-4.94,0-1.88.12-5.96.21-9.23l.07-2.41c.03-.87.05-1.63.05-2.13.09-3.39-.07-5.71-2.96-7.28l-.68-.33c-.35-.15-.73-.29-1.16-.43l-.38-.1c-.7-.22-1.38-.4-2-.53-.7-.16-1.41-.38-2.05-.63-.93-.4-1.88-.63-2.87-.7h-.16c-.16.01-1.74.02-3.17.03h-1.04c-.9.06-1.87.29-2.66.65-.76.28-1.47.51-2.18.69-1.24.31-1.61.41-2.03.54-.09.03-.2.06-.4.1-.39.09-.8.24-1.19.43l-.34.09-.3.26c-2.92,1.6-3.06,4.13-2.93,7.28.02.34.03.77.03,1.26l.1,3.81c.09,3.23.2,6.89.2,8.55-.07,1.72-.27,3.4-.61,5.03-.35,1.62-.56,3.3-.63,5,0,8,6.66,14.3,15.17,14.3,4.12,0,7.94-1.48,10.78-4.16,2.83-2.69,4.39-6.32,4.39-10.25-.06-1.61-.27-3.26-.62-4.87Zm-14.54,17.21c-7.34,0-13.09-5.35-13.09-12.18.06-1.57.26-3.11.58-4.61.37-1.75.59-3.58.66-5.42,0-1.63-.09-4.88-.18-8.03l-.12-4.45c-.01-.54-.02-.95-.03-1.27-.13-3.28.22-4.41,1.63-5.24l.2-.12h.2s.34-.28.34-.28c.25-.13.52-.23.76-.29.25-.05.46-.1.6-.15.37-.11.73-.21,1.92-.51.8-.21,1.58-.45,2.44-.77.6-.27,1.31-.44,1.99-.49h1.1s.14.88.14.88v4.25l-.44.26c-.83.48-1.33,1.34-1.33,2.29v3.88c0,.95.5,1.8,1.33,2.29l.44.26v5.78c0,.49.4.89.89.89s.89-.4.89-.89v-5.78l.44-.26c.83-.49,1.33-1.34,1.33-2.29v-3.88c0-.95-.5-1.8-1.33-2.29l-.44-.26V2.09l1.09-.02c.84.06,1.54.23,2.24.54.75.29,1.57.55,2.4.75.58.12,1.19.28,1.86.49l.36.09c.38.12.7.25,1.01.38l.75.39c1.45.89,1.68,2.15,1.6,5.27,0,.48-.02,1.15-.05,1.92l-.07,2.41c-.09,2.97-.22,7.46-.21,9.51.07,1.77.29,3.57.66,5.33.32,1.5.52,3.01.58,4.48,0,6.91-5.75,12.29-13.09,12.29Z"/></svg>