<?xml version="1.0" encoding="UTF-8"?><svg id="Layer_1" xmlns="http://www.w3.org/2000/svg" viewBox="0 0 48 48"><defs><style>.cls-1{fill:#ffa40d;stroke-width:0px;}</style></defs><path class="cls-1" d="m37.09,33.63c0,6.91-5.75,12.29-13.09,12.29s-13.09-5.35-13.09-12.18c.06-1.57.26-3.11.58-4.61.37-1.75.59-3.58.66-5.42,0-1.63-.09-4.88-.18-8.03l-.12-4.45c-.01-.54-.02-.95-.03-1.27-.13-3.28.22-4.41,1.63-5.24l.2-.12h.2s.34-.28.34-.28c.25-.13.52-.23.76-.29.25-.05.46-.1.6-.15.37-.11.73-.21,1.92-.51.8-.21,1.58-.45,2.44-.77.6-.27,1.31-.44,1.99-.49h1.1s.14.88.14.88v4.25l-.44.26c-.83.48-1.33,1.34-1.33,2.29v3.88c0,.95.5,1.8,1.33,2.29l.44.26v5.78c0,.49.4.89.89.89s.89-.4.89-.89v-5.78l.44-.26c.83-.49,1.33-1.34,1.33-2.29v-3.88c0-.95-.5-1.8-1.33-2.29l-.44-.26V2.09l1.1-.02c.84.06,1.54.23,2.24.54.75.29,1.57.55,2.4.75.58.12,1.19.28,1.86.49l.36.09c.38.12.7.25,1.01.38l.75.39c1.45.89,1.68,2.15,1.6,5.27,0,.48-.02,1.15-.05,1.92l-.07,2.41c-.09,2.97-.22,7.46-.21,9.51.07,1.77.29,3.57.66,5.33.32,1.5.52,3.01.58,4.48Z"/></svg>