<svg xmlns="http://www.w3.org/2000/svg" width="55.304" height="24" viewBox="0 0 55.304 24">
  <path id="Path_17571" data-name="Path 17571" d="M1004.777,2289.937a2.087,2.087,0,0,0-2.087-2.087H951.579a2.087,2.087,0,0,0-2.087,2.087l.02,19.826a2.086,2.086,0,0,0,2.086,2.087h51.112a2.087,2.087,0,0,0,2.087-2.087Zm-2.589,14.609h-3.13a.522.522,0,0,1-.522-.522v-3.131a.522.522,0,0,1,.522-.522h3.13a.522.522,0,0,1,.522.522v3.131a.522.522,0,0,1-.522.522m.522,1.565v3.13a.522.522,0,0,1-.522.522h-3.13a.522.522,0,0,1-.522-.522v-3.13a.522.522,0,0,1,.522-.522h3.13a.522.522,0,0,1,.522.522m-.522-6.783h-3.13a.522.522,0,0,1-.522-.522v-3.13a.522.522,0,0,1,.522-.522h3.13a.522.522,0,0,1,.522.522v3.13a.522.522,0,0,1-.522.522m-8.87,6.783a.522.522,0,0,1,.522-.522h3.13a.522.522,0,0,1,.522.522v3.13a.522.522,0,0,1-.522.522h-3.13a.522.522,0,0,1-.522-.522Zm0-2.1v-3.13a.522.522,0,0,1,.522-.522h3.13a.522.522,0,0,1,.522.522v3.13a.522.522,0,0,1-.522.522h-3.13a.522.522,0,0,1-.522-.522m3.657-4.684h-6.261a.522.522,0,0,1-.522-.522v-3.13a.522.522,0,0,1,.522-.522h6.261a.522.522,0,0,1,.522.522v3.13a.522.522,0,0,1-.522.522m-5.217,5.218h-4.174a.522.522,0,0,1-.522-.522v-3.131a.522.522,0,0,1,.522-.522h4.174a.522.522,0,0,1,.522.522v3.131a.522.522,0,0,1-.522.522m.522,1.565v3.13a.522.522,0,0,1-.522.522h-3.13a.522.522,0,0,1-.522-.522v-3.13a.522.522,0,0,1,.522-.522h3.13a.522.522,0,0,1,.522.522M952.1,2295.155h5.217a.522.522,0,0,1,.522.522v3.13a.522.522,0,0,1-.522.522H952.1a.522.522,0,0,1-.522-.522v-3.13a.522.522,0,0,1,.522-.522m-.522-1.565v-3.131a.522.522,0,0,1,.522-.522h3.13a.522.522,0,0,1,.522.522v3.131a.522.522,0,0,1-.522.522H952.1a.522.522,0,0,1-.522-.522m5.217,0v-3.131a.522.522,0,0,1,.522-.522h3.13a.522.522,0,0,1,.522.522v3.131a.522.522,0,0,1-.522.522h-3.13a.522.522,0,0,1-.522-.522m-4.7,6.782h7.3a.522.522,0,0,1,.522.522v3.131a.522.522,0,0,1-.522.522h-7.3a.522.522,0,0,1-.522-.522v-3.131a.522.522,0,0,1,.522-.522m4.7,5.739a.522.522,0,0,1,.522-.522h3.13a.522.522,0,0,1,.522.522v3.13a.522.522,0,0,1-.522.522h-3.13a.522.522,0,0,1-.522-.522Zm2.609-6.783a.522.522,0,0,1-.522-.522v-3.13a.522.522,0,0,1,.522-.522h3.13a.522.522,0,0,1,.522.522v3.13a.522.522,0,0,1-.522.522Zm2.609-5.739v-3.131a.522.522,0,0,1,.522-.522h3.13a.522.522,0,0,1,.522.522v3.131a.522.522,0,0,1-.522.522h-3.13a.522.522,0,0,1-.522-.522m-1.044,7.3a.522.522,0,0,1,.522-.522h3.13a.522.522,0,0,1,.522.522v3.131a.522.522,0,0,1-.522.522h-3.13a.522.522,0,0,1-.522-.522Zm1.044,5.218a.522.522,0,0,1,.522-.522h3.13a.522.522,0,0,1,.522.522v3.13a.522.522,0,0,1-.522.522h-3.13a.522.522,0,0,1-.522-.522Zm2.609-6.783a.522.522,0,0,1-.522-.522v-3.13a.522.522,0,0,1,.522-.522h3.13a.522.522,0,0,1,.522.522v3.13a.522.522,0,0,1-.522.522Zm18.783-4.174a.522.522,0,0,1,.522.522v3.13a.522.522,0,0,1-.522.522h-3.13a.522.522,0,0,1-.522-.522v-3.13a.522.522,0,0,1,.522-.522Zm-.522-1.565v-3.131a.522.522,0,0,1,.522-.522h3.13a.522.522,0,0,1,.522.522v3.131a.522.522,0,0,1-.522.522h-3.13a.522.522,0,0,1-.522-.522m2.609,6.782a.522.522,0,0,1,.522.522v3.131a.522.522,0,0,1-.522.522h-3.13a.522.522,0,0,1-.522-.522v-3.131a.522.522,0,0,1,.522-.522Zm-4.7.522v3.131a.522.522,0,0,1-.522.522h-3.13a.522.522,0,0,1-.522-.522v-3.131a.522.522,0,0,1,.522-.522h3.13a.522.522,0,0,1,.522.522m1.043-7.3a.522.522,0,0,1-.522.522h-3.13a.522.522,0,0,1-.522-.522v-3.131a.522.522,0,0,1,.522-.522h3.13a.522.522,0,0,1,.522.522Zm-3.652,1.565a.522.522,0,0,1,.522.522v3.13a.522.522,0,0,1-.522.522h-3.13a.522.522,0,0,1-.522-.522v-3.13a.522.522,0,0,1,.522-.522Zm-2.609,5.739v3.131a.522.522,0,0,1-.522.522h-3.13a.522.522,0,0,1-.522-.522v-3.131a.522.522,0,0,1,.522-.522h3.13a.522.522,0,0,1,.522.522m1.043-7.3a.522.522,0,0,1-.522.522h-3.13a.522.522,0,0,1-.522-.522v-3.131a.522.522,0,0,1,.522-.522h3.13a.522.522,0,0,1,.522.522Zm-3.652,1.565a.522.522,0,0,1,.522.522v3.13a.522.522,0,0,1-.522.522h-3.13a.522.522,0,0,1-.522-.522v-3.13a.522.522,0,0,1,.522-.522Zm-1.565-1.565a.522.522,0,0,1-.522.522h-3.13a.522.522,0,0,1-.522-.522v-3.131a.522.522,0,0,1,.522-.522h3.13a.522.522,0,0,1,.522.522Zm-5.217,7.3a.522.522,0,0,1,.522-.522h3.13a.522.522,0,0,1,.522.522v3.131a.522.522,0,0,1-.522.522h-3.13a.522.522,0,0,1-.522-.522Zm1.043,5.218a.522.522,0,0,1,.522-.522h18.783a.522.522,0,0,1,.522.522v3.13a.522.522,0,0,1-.522.522H967.753a.522.522,0,0,1-.522-.522Zm18.261-6.783a.522.522,0,0,1-.522-.522v-3.13a.522.522,0,0,1,.522-.522h3.13a.522.522,0,0,1,.522.522v3.13a.522.522,0,0,1-.522.522Zm11.478-5.217h-8.348a.522.522,0,0,1-.522-.522v-3.131a.522.522,0,0,1,.522-.522h8.348a.522.522,0,0,1,.522.522v3.131a.522.522,0,0,1-.522.522m-45.391,12a.522.522,0,0,1,.522-.522h3.13a.522.522,0,0,1,.522.522v3.13a.522.522,0,0,1-.522.522H952.1a.522.522,0,0,1-.522-.522Zm51.13-12.522a.522.522,0,0,1-.522.522h-3.13a.522.522,0,0,1-.522-.522v-3.131a.522.522,0,0,1,.522-.522h3.13a.522.522,0,0,1,.522.522Z" transform="translate(-949.492 -2287.85)" fill="#ffa40d"/>
</svg>
