<svg xmlns="http://www.w3.org/2000/svg" width="67.5" height="30" viewBox="0 0 67.5 30">
  <g id="Group_14867" data-name="Group 14867" transform="translate(1962.186 -5281)">
    <path id="Path_17447" data-name="Path 17447" d="M2963.351,228.283h4.286a.536.536,0,0,0,.536-.536v-3.214a.536.536,0,0,0-.536-.536h-4.286a.536.536,0,0,0-.536.536v3.214a.536.536,0,0,0,.536.536" transform="translate(-4922.858 5064.503)" fill="#707070"/>
    <path id="Path_17448" data-name="Path 17448" d="M2963.351,68.283h3.214a.536.536,0,0,0,.536-.536V64.533a.536.536,0,0,0-.536-.536h-3.214a.536.536,0,0,0-.536.536v3.214a.536.536,0,0,0,.536.536" transform="translate(-4922.858 5219.146)" fill="#707070"/>
    <path id="Path_17449" data-name="Path 17449" d="M2966.565,704h-3.214a.536.536,0,0,0-.536.536v3.214a.536.536,0,0,0,.536.536h3.214a.536.536,0,0,0,.536-.536v-3.214a.536.536,0,0,0-.536-.536" transform="translate(-4922.858 4600.574)" fill="#707070"/>
    <path id="Path_17450" data-name="Path 17450" d="M3126.565,704h-3.214a.536.536,0,0,0-.536.536v3.214a.536.536,0,0,0,.536.536h3.214a.536.536,0,0,0,.536-.536v-3.214a.536.536,0,0,0-.536-.536" transform="translate(-5077.501 4600.574)" fill="#707070"/>
    <path id="Path_17451" data-name="Path 17451" d="M3286.565,704h-3.215a.536.536,0,0,0-.536.536v3.214a.536.536,0,0,0,.536.536h3.215a.536.536,0,0,0,.535-.536v-3.214a.536.536,0,0,0-.535-.536" transform="translate(-5232.144 4600.574)" fill="#707070"/>
    <path id="Path_17452" data-name="Path 17452" d="M3255.1,547.747v-3.214a.536.536,0,0,0-.536-.536h-3.214a.536.536,0,0,0-.536.536v3.214a.536.536,0,0,0,.536.536h3.214a.536.536,0,0,0,.536-.536" transform="translate(-5201.215 4755.217)" fill="#707070"/>
    <path id="Path_17453" data-name="Path 17453" d="M3415.1,547.747v-3.214a.536.536,0,0,0-.536-.536h-3.214a.536.536,0,0,0-.536.536v3.214a.536.536,0,0,0,.536.536h3.214a.536.536,0,0,0,.536-.536" transform="translate(-5355.858 4755.217)" fill="#707070"/>
    <path id="Path_17454" data-name="Path 17454" d="M3511.1,387.747v-3.214a.536.536,0,0,0-.536-.536h-3.215a.536.536,0,0,0-.535.536v3.214a.536.536,0,0,0,.535.536h3.215a.536.536,0,0,0,.536-.536" transform="translate(-5448.644 4909.86)" fill="#707070"/>
    <path id="Path_17559" data-name="Path 17559" d="M3511.1,387.747v-3.214a.536.536,0,0,0-.536-.536h-3.215a.536.536,0,0,0-.535.536v3.214a.536.536,0,0,0,.535.536h3.215a.536.536,0,0,0,.536-.536" transform="translate(-5454.001 4909.86)" fill="#707070"/>
    <path id="Path_17560" data-name="Path 17560" d="M3511.1,387.747v-3.214a.536.536,0,0,0-.536-.536h-3.215a.536.536,0,0,0-.535.536v3.214a.536.536,0,0,0,.535.536h3.215a.536.536,0,0,0,.536-.536" transform="translate(-5459.359 4909.86)" fill="#707070"/>
    <path id="Path_17455" data-name="Path 17455" d="M3571.351,548.283h3.214a.536.536,0,0,0,.535-.536v-3.214a.536.536,0,0,0-.535-.536h-3.214a.536.536,0,0,0-.536.536v3.214a.536.536,0,0,0,.536.536" transform="translate(-5510.501 4755.217)" fill="#707070"/>
    <path id="Path_17456" data-name="Path 17456" d="M3671.1,387.747v-3.214a.536.536,0,0,0-.536-.536h-3.214a.536.536,0,0,0-.536.536v3.214a.536.536,0,0,0,.536.536h3.214a.536.536,0,0,0,.536-.536" transform="translate(-5603.287 4909.86)" fill="#707070"/>
    <path id="Path_17457" data-name="Path 17457" d="M3731.351,548.283h3.215a.536.536,0,0,0,.535-.536v-3.214a.536.536,0,0,0-.535-.536h-3.215a.536.536,0,0,0-.536.536v3.214a.536.536,0,0,0,.536.536" transform="translate(-5665.144 4755.217)" fill="#707070"/>
    <path id="Path_17458" data-name="Path 17458" d="M3831.1,387.747v-3.214a.536.536,0,0,0-.536-.536h-3.214a.536.536,0,0,0-.536.536v3.214a.536.536,0,0,0,.536.536h3.214a.536.536,0,0,0,.536-.536" transform="translate(-5757.929 4909.86)" fill="#707070"/>
    <path id="Path_17459" data-name="Path 17459" d="M3991.1,387.747v-3.214a.536.536,0,0,0-.535-.536h-3.215a.536.536,0,0,0-.536.536v3.214a.536.536,0,0,0,.536.536h3.215a.536.536,0,0,0,.535-.536" transform="translate(-5912.572 4909.86)" fill="#707070"/>
    <path id="Path_17460" data-name="Path 17460" d="M3891.351,548.283h3.215a.536.536,0,0,0,.536-.536v-3.214a.536.536,0,0,0-.536-.536h-3.215a.536.536,0,0,0-.536.536v3.214a.536.536,0,0,0,.536.536" transform="translate(-5819.787 4755.217)" fill="#707070"/>
    <path id="Path_17461" data-name="Path 17461" d="M3314.815,224.533v3.214a.536.536,0,0,0,.536.536h3.215a.536.536,0,0,0,.535-.536v-3.214a.536.536,0,0,0-.535-.536h-3.215a.536.536,0,0,0-.536.536" transform="translate(-5263.073 5064.503)" fill="#707070"/>
    <path id="Path_17462" data-name="Path 17462" d="M3154.815,224.533v3.214a.536.536,0,0,0,.536.536h3.215a.536.536,0,0,0,.535-.536v-3.214a.536.536,0,0,0-.535-.536h-3.215a.536.536,0,0,0-.536.536" transform="translate(-5108.43 5064.503)" fill="#707070"/>
    <path id="Path_17463" data-name="Path 17463" d="M3474.815,224.533v3.214a.536.536,0,0,0,.536.536h3.214a.536.536,0,0,0,.536-.536v-3.214a.536.536,0,0,0-.536-.536h-3.214a.536.536,0,0,0-.536.536" transform="translate(-5417.715 5064.503)" fill="#707070"/>
    <path id="Path_17464" data-name="Path 17464" d="M3634.815,224.533v3.214a.536.536,0,0,0,.536.536h3.214a.536.536,0,0,0,.536-.536v-3.214a.536.536,0,0,0-.536-.536h-3.214a.536.536,0,0,0-.536.536" transform="translate(-5572.358 5064.503)" fill="#707070"/>
    <path id="Path_17465" data-name="Path 17465" d="M3794.815,224.533v3.214a.536.536,0,0,0,.535.536h3.215a.536.536,0,0,0,.536-.536v-3.214a.536.536,0,0,0-.536-.536h-3.215a.536.536,0,0,0-.535.536" transform="translate(-5727.001 5064.503)" fill="#707070"/>
    <path id="Path_17466" data-name="Path 17466" d="M3954.815,224.533v3.214a.536.536,0,0,0,.536.536h3.214a.536.536,0,0,0,.536-.536v-3.214a.536.536,0,0,0-.536-.536h-3.214a.536.536,0,0,0-.536.536" transform="translate(-5881.645 5064.503)" fill="#707070"/>
    <path id="Path_17467" data-name="Path 17467" d="M3123.351,68.283h3.214a.536.536,0,0,0,.536-.536V64.533a.536.536,0,0,0-.536-.536h-3.214a.536.536,0,0,0-.536.536v3.214a.536.536,0,0,0,.536.536" transform="translate(-5077.501 5219.146)" fill="#707070"/>
    <path id="Path_17468" data-name="Path 17468" d="M3283.351,68.283h3.215a.536.536,0,0,0,.535-.536V64.533a.536.536,0,0,0-.535-.536h-3.215a.536.536,0,0,0-.536.536v3.214a.536.536,0,0,0,.536.536" transform="translate(-5232.144 5219.146)" fill="#707070"/>
    <path id="Path_17469" data-name="Path 17469" d="M3443.351,68.283h3.215a.536.536,0,0,0,.535-.536V64.533a.536.536,0,0,0-.535-.536h-3.215a.536.536,0,0,0-.536.536v3.214a.536.536,0,0,0,.536.536" transform="translate(-5386.787 5219.146)" fill="#707070"/>
    <path id="Path_17470" data-name="Path 17470" d="M3603.351,68.283h3.215a.536.536,0,0,0,.536-.536V64.533a.536.536,0,0,0-.536-.536h-3.215a.536.536,0,0,0-.536.536v3.214a.536.536,0,0,0,.536.536" transform="translate(-5541.43 5219.146)" fill="#707070"/>
    <path id="Path_17471" data-name="Path 17471" d="M3763.351,68.283h3.215a.536.536,0,0,0,.536-.536V64.533a.536.536,0,0,0-.536-.536h-3.215a.536.536,0,0,0-.536.536v3.214a.536.536,0,0,0,.536.536" transform="translate(-5696.073 5219.146)" fill="#707070"/>
    <path id="Path_17472" data-name="Path 17472" d="M3923.351,68.283h3.215a.536.536,0,0,0,.536-.536V64.533a.536.536,0,0,0-.536-.536h-3.215a.536.536,0,0,0-.535.536v3.214a.536.536,0,0,0,.535.536" transform="translate(-5850.716 5219.146)" fill="#707070"/>
    <path id="Path_17473" data-name="Path 17473" d="M4083.351,68.283h3.214a.536.536,0,0,0,.536-.536V64.533a.536.536,0,0,0-.536-.536h-3.214a.536.536,0,0,0-.536.536v3.214a.536.536,0,0,0,.536.536" transform="translate(-6005.358 5219.146)" fill="#707070"/>
    <path id="Path_17474" data-name="Path 17474" d="M4246.565,64h-3.215a.536.536,0,0,0-.536.536v3.214a.536.536,0,0,0,.536.536h3.215a.536.536,0,0,0,.536-.536V64.533a.536.536,0,0,0-.536-.536" transform="translate(-6160.001 5219.146)" fill="#707070"/>
    <path id="Path_17475" data-name="Path 17475" d="M4406.565,64h-3.215a.536.536,0,0,0-.536.536v3.214a.536.536,0,0,0,.536.536h3.215a.536.536,0,0,0,.536-.536V64.533a.536.536,0,0,0-.536-.536" transform="translate(-6314.645 5219.146)" fill="#707070"/>
    <path id="Path_17476" data-name="Path 17476" d="M4726.564,64h-3.214a.536.536,0,0,0-.536.536v3.214a.536.536,0,0,0,.536.536h3.214a.536.536,0,0,0,.536-.536V64.533a.536.536,0,0,0-.536-.536" transform="translate(-6623.929 5219.146)" fill="#707070"/>
    <path id="Path_17477" data-name="Path 17477" d="M4406.565,224h-3.215a.536.536,0,0,0-.536.536v3.214a.536.536,0,0,0,.536.536h3.215a.536.536,0,0,0,.536-.536v-3.214a.536.536,0,0,0-.536-.536" transform="translate(-6314.645 5064.503)" fill="#707070"/>
    <path id="Path_17478" data-name="Path 17478" d="M4406.565,384h-3.215a.536.536,0,0,0-.536.536v3.214a.536.536,0,0,0,.536.536h3.215a.536.536,0,0,0,.536-.536v-3.214a.536.536,0,0,0-.536-.536" transform="translate(-6314.645 4909.86)" fill="#707070"/>
    <path id="Path_17479" data-name="Path 17479" d="M4406.565,544h-3.215a.536.536,0,0,0-.536.536v3.214a.536.536,0,0,0,.536.536h3.215a.536.536,0,0,0,.536-.536v-3.214a.536.536,0,0,0-.536-.536" transform="translate(-6314.645 4755.217)" fill="#707070"/>
    <path id="Path_17480" data-name="Path 17480" d="M4153.779,384h-6.429a.536.536,0,0,0-.536.536v3.214a.536.536,0,0,0,.536.536h6.429a.536.536,0,0,0,.536-.536v-3.214a.536.536,0,0,0-.536-.536" transform="translate(-6067.215 4909.86)" fill="#707070"/>
    <path id="Path_17481" data-name="Path 17481" d="M4055.636,544h-4.286a.536.536,0,0,0-.535.536v3.214a.536.536,0,0,0,.535.536h4.286a.536.536,0,0,0,.536-.536v-3.214a.536.536,0,0,0-.536-.536" transform="translate(-5974.43 4755.217)" fill="#707070"/>
    <path id="Path_17482" data-name="Path 17482" d="M4406.565,704h-3.215a.536.536,0,0,0-.536.536v3.214a.536.536,0,0,0,.536.536h3.215a.536.536,0,0,0,.536-.536v-3.214a.536.536,0,0,0-.536-.536" transform="translate(-6314.645 4600.574)" fill="#707070"/>
    <path id="Path_17483" data-name="Path 17483" d="M4566.565,64h-3.214a.536.536,0,0,0-.536.536v3.214a.536.536,0,0,0,.536.536h3.214a.536.536,0,0,0,.536-.536V64.533a.536.536,0,0,0-.536-.536" transform="translate(-6469.287 5219.146)" fill="#707070"/>
    <path id="Path_17484" data-name="Path 17484" d="M4566.565,224h-3.214a.536.536,0,0,0-.536.536v3.214a.536.536,0,0,0,.536.536h3.214a.536.536,0,0,0,.536-.536v-3.214a.536.536,0,0,0-.536-.536" transform="translate(-6469.287 5064.503)" fill="#707070"/>
    <path id="Path_17485" data-name="Path 17485" d="M4566.565,384h-3.214a.536.536,0,0,0-.536.536v3.214a.536.536,0,0,0,.536.536h3.214a.536.536,0,0,0,.536-.536v-3.214a.536.536,0,0,0-.536-.536" transform="translate(-6469.287 4909.86)" fill="#707070"/>
    <path id="Path_17486" data-name="Path 17486" d="M4566.565,544h-3.214a.536.536,0,0,0-.536.536v3.214a.536.536,0,0,0,.536.536h3.214a.536.536,0,0,0,.536-.536v-3.214a.536.536,0,0,0-.536-.536" transform="translate(-6469.287 4755.217)" fill="#707070"/>
    <path id="Path_17487" data-name="Path 17487" d="M4566.565,704h-3.214a.536.536,0,0,0-.536.536v3.214a.536.536,0,0,0,.536.536h3.214a.536.536,0,0,0,.536-.536v-3.214a.536.536,0,0,0-.536-.536" transform="translate(-6469.287 4600.574)" fill="#707070"/>
    <path id="Path_17488" data-name="Path 17488" d="M4246.565,704h-3.215a.536.536,0,0,0-.536.536v3.214a.536.536,0,0,0,.536.536h3.215a.536.536,0,0,0,.536-.536v-3.214a.536.536,0,0,0-.536-.536" transform="translate(-6160.001 4600.574)" fill="#707070"/>
    <path id="Path_17489" data-name="Path 17489" d="M4246.408,544.4h-3.214a.536.536,0,0,0-.536.536v3.214a.536.536,0,0,0,.536.536h3.214a.536.536,0,0,0,.536-.536v-3.214a.536.536,0,0,0-.536-.536" transform="translate(-6159.85 4754.824)" fill="#707070"/>
    <path id="Path_17490" data-name="Path 17490" d="M4086.564,704h-3.214a.536.536,0,0,0-.536.536v3.214a.536.536,0,0,0,.536.536h3.214a.536.536,0,0,0,.536-.536v-3.214a.536.536,0,0,0-.536-.536" transform="translate(-6005.358 4600.574)" fill="#707070"/>
    <path id="Path_17491" data-name="Path 17491" d="M4122.851,224h-7.5a.536.536,0,0,0-.536.536v3.214a.536.536,0,0,0,.536.536h7.5a.536.536,0,0,0,.536-.536v-3.214a.536.536,0,0,0-.536-.536" transform="translate(-6036.287 5064.503)" fill="#707070"/>
    <path id="Path_17492" data-name="Path 17492" d="M3462.636,704h-19.286a.536.536,0,0,0-.536.536v3.214a.536.536,0,0,0,.536.536h19.286a.536.536,0,0,0,.536-.536v-3.214a.536.536,0,0,0-.536-.536" transform="translate(-5386.787 4600.574)" fill="#707070"/>
    <path id="Path_17493" data-name="Path 17493" d="M2963.351,548.283h7.5a.536.536,0,0,0,.536-.536v-3.214a.536.536,0,0,0-.536-.536h-7.5a.536.536,0,0,0-.536.536v3.214a.536.536,0,0,0,.536.536" transform="translate(-4922.858 4755.217)" fill="#707070"/>
    <path id="Path_17494" data-name="Path 17494" d="M2963.351,388.283h5.357a.536.536,0,0,0,.536-.536v-3.214a.536.536,0,0,0-.536-.536h-5.357a.536.536,0,0,0-.536.536v3.214a.536.536,0,0,0,.536.536" transform="translate(-4922.858 4909.86)" fill="#707070"/>
    <path id="Path_17495" data-name="Path 17495" d="M2964.171,0h-63.214a2.143,2.143,0,0,0-2.143,2.143V27.854A2.143,2.143,0,0,0,2900.957,30h63.214a2.143,2.143,0,0,0,2.143-2.143V2.14A2.143,2.143,0,0,0,2964.171,0m1.052,27.857a1.053,1.053,0,0,1-1.052,1.052h-63.214a1.053,1.053,0,0,1-1.052-1.052V2.14a1.053,1.053,0,0,1,1.052-1.052h63.214a1.053,1.053,0,0,1,1.052,1.052Z" transform="translate(-4861 5281.003)" fill="#707070"/>
    <path id="Path_17496" data-name="Path 17496" d="M4726.564,224h-3.214a.536.536,0,0,0-.536.536V233.1a.536.536,0,0,0,.536.536h3.214a.536.536,0,0,0,.536-.536v-8.571a.536.536,0,0,0-.536-.536" transform="translate(-6623.929 5064.503)" fill="#707070"/>
    <path id="Path_17497" data-name="Path 17497" d="M4726.564,544h-3.214a.536.536,0,0,0-.536.536V553.1a.536.536,0,0,0,.536.536h3.214a.536.536,0,0,0,.536-.536v-8.571a.536.536,0,0,0-.536-.536" transform="translate(-6623.929 4755.217)" fill="#707070"/>
  </g>
</svg>
