<svg xmlns="http://www.w3.org/2000/svg" width="67.5" height="30" viewBox="0 0 67.5 30">
  <path id="Path_17572" data-name="Path 17572" d="M2964.169,2143.8h-63.214a2.143,2.143,0,0,0-2.143,2.143v25.714a2.143,2.143,0,0,0,2.143,2.143h63.214a2.143,2.143,0,0,0,2.143-2.143v-25.714a2.143,2.143,0,0,0-2.143-2.143m-.536,6.428h-3.214a.536.536,0,0,1-.536-.536v-3.214a.536.536,0,0,1,.536-.536h3.214a.536.536,0,0,1,.536.536v3.214a.536.536,0,0,1-.536.536m.536,1.607v8.572a.536.536,0,0,1-.536.536h-3.214a.536.536,0,0,1-.536-.536v-8.572a.536.536,0,0,1,.536-.536h3.214a.536.536,0,0,1,.536.536m-5.893,14.464h-3.214a.536.536,0,0,1-.536-.536v-3.214a.536.536,0,0,1,.536-.536h3.214a.536.536,0,0,1,.536.536v3.214a.536.536,0,0,1-.536.536m.536,1.607v3.214a.536.536,0,0,1-.536.536h-3.214a.536.536,0,0,1-.536-.536v-3.214a.536.536,0,0,1,.536-.536h3.214a.536.536,0,0,1,.536.536m-.536-6.964h-3.214a.536.536,0,0,1-.536-.536v-3.214a.536.536,0,0,1,.536-.536h3.214a.536.536,0,0,1,.536.536v3.214a.536.536,0,0,1-.536.536m0-5.357h-3.214a.536.536,0,0,1-.536-.536v-3.214a.536.536,0,0,1,.536-.536h3.214a.536.536,0,0,1,.536.536v3.214a.536.536,0,0,1-.536.536m0-5.357h-3.214a.536.536,0,0,1-.536-.536v-3.214a.536.536,0,0,1,.536-.536h3.214a.536.536,0,0,1,.536.536v3.214a.536.536,0,0,1-.536.536m-5.357,16.072h-3.214a.536.536,0,0,1-.536-.536v-3.214a.536.536,0,0,1,.536-.536h3.214a.536.536,0,0,1,.536.536v3.214a.536.536,0,0,1-.536.536m.536,1.607v3.214a.536.536,0,0,1-.536.536h-3.214a.536.536,0,0,1-.536-.536v-3.214a.536.536,0,0,1,.536-.536h3.214a.536.536,0,0,1,.536.536m-.536-6.964h-3.214a.536.536,0,0,1-.536-.536v-3.214a.536.536,0,0,1,.536-.536h3.214a.536.536,0,0,1,.536.536v3.214a.536.536,0,0,1-.536.536m0-5.357h-3.214a.536.536,0,0,1-.536-.536v-3.214a.536.536,0,0,1,.536-.536h3.214a.536.536,0,0,1,.536.536v3.214a.536.536,0,0,1-.536.536m0-5.357h-3.214a.536.536,0,0,1-.536-.536v-3.214a.536.536,0,0,1,.536-.536h3.214a.536.536,0,0,1,.536.536v3.214a.536.536,0,0,1-.536.536m-9.107,17.679a.536.536,0,0,1,.536-.536h3.214a.536.536,0,0,1,.536.536v3.214a.536.536,0,0,1-.536.536h-3.214a.536.536,0,0,1-.536-.536Zm0-2.129v-3.214a.536.536,0,0,1,.536-.536h3.214a.536.536,0,0,1,.536.536v3.214a.536.536,0,0,1-.536.536h-3.214a.536.536,0,0,1-.536-.536m3.755-4.835h-6.428a.536.536,0,0,1-.536-.536v-3.214a.536.536,0,0,1,.536-.536h6.428a.536.536,0,0,1,.536.536v3.214a.536.536,0,0,1-.536.536m-5.357,5.357h-4.286a.536.536,0,0,1-.536-.536v-3.214a.536.536,0,0,1,.536-.536h4.286a.536.536,0,0,1,.536.536v3.214a.536.536,0,0,1-.536.536m.536,1.607v3.214a.536.536,0,0,1-.536.536h-3.214a.536.536,0,0,1-.536-.536v-3.214a.536.536,0,0,1,.536-.536h3.214a.536.536,0,0,1,.536.536m-41.25-11.25h5.357a.536.536,0,0,1,.536.536v3.214a.536.536,0,0,1-.536.536h-5.357a.536.536,0,0,1-.536-.536v-3.214a.536.536,0,0,1,.536-.536m-.536-1.607v-3.214a.536.536,0,0,1,.536-.536h4.286a.536.536,0,0,1,.536.536v3.214a.536.536,0,0,1-.536.536h-4.286a.536.536,0,0,1-.536-.536m9.643-5.357a.536.536,0,0,1-.536.536h-3.214a.536.536,0,0,1-.536-.536v-3.214a.536.536,0,0,1,.536-.536h3.214a.536.536,0,0,1,.536.536Zm.536,1.607a.536.536,0,0,1,.536.536v3.214a.536.536,0,0,1-.536.536h-3.214a.536.536,0,0,1-.536-.536v-3.214a.536.536,0,0,1,.536-.536Zm-9.643,10.714h7.5a.536.536,0,0,1,.536.536v3.214a.536.536,0,0,1-.536.536h-7.5a.536.536,0,0,1-.536-.536v-3.214a.536.536,0,0,1,.536-.536m4.821,5.893a.536.536,0,0,1,.536-.536h3.214a.536.536,0,0,1,.536.536v3.214a.536.536,0,0,1-.536.536h-3.214a.536.536,0,0,1-.536-.536Zm2.679-6.964a.536.536,0,0,1-.536-.536v-3.214a.536.536,0,0,1,.536-.536h3.214a.536.536,0,0,1,.536.536v3.214a.536.536,0,0,1-.536.536Zm6.964-11.25a.536.536,0,0,1-.536.536h-3.214a.536.536,0,0,1-.536-.536v-3.214a.536.536,0,0,1,.536-.536h3.214a.536.536,0,0,1,.536.536Zm.536,1.607a.536.536,0,0,1,.536.536v3.214a.536.536,0,0,1-.536.536h-3.214a.536.536,0,0,1-.536-.536v-3.214a.536.536,0,0,1,.536-.536Zm-5.893,11.25a.536.536,0,0,1,.536-.536h3.214a.536.536,0,0,1,.536.536v3.214a.536.536,0,0,1-.536.536h-3.214a.536.536,0,0,1-.536-.536Zm1.071,5.357a.536.536,0,0,1,.536-.536h3.214a.536.536,0,0,1,.536.536v3.214a.536.536,0,0,1-.536.536h-3.214a.536.536,0,0,1-.536-.536Zm2.679-6.964a.536.536,0,0,1-.536-.536v-3.214a.536.536,0,0,1,.536-.536h3.214a.536.536,0,0,1,.536.536v3.214a.536.536,0,0,1-.536.536Zm19.821-5.893v-3.214a.536.536,0,0,1,.536-.536h3.214a.536.536,0,0,1,.536.536v3.214a.536.536,0,0,1-.536.536h-3.214a.536.536,0,0,1-.536-.536m1.607,6.964a.536.536,0,0,1,.536.536v3.214a.536.536,0,0,1-.536.536h-3.214a.536.536,0,0,1-.536-.536v-3.214a.536.536,0,0,1,.536-.536Zm1.607-12.322a.536.536,0,0,1-.536.536h-3.214a.536.536,0,0,1-.536-.536v-3.214a.536.536,0,0,1,.536-.536h3.214a.536.536,0,0,1,.536.536Zm-3.75,6.964a.536.536,0,0,1,.536.536v3.214a.536.536,0,0,1-.536.536h-3.214a.536.536,0,0,1-.536-.536v-3.214a.536.536,0,0,1,.536-.536Zm-2.678,5.893v3.214a.536.536,0,0,1-.536.536h-3.214a.536.536,0,0,1-.536-.536v-3.214a.536.536,0,0,1,.536-.536h3.214a.536.536,0,0,1,.536.536m2.143-7.5a.536.536,0,0,1-.536.536h-3.214a.536.536,0,0,1-.536-.536v-3.214a.536.536,0,0,1,.536-.536h3.214a.536.536,0,0,1,.536.536Zm-1.072-5.357a.536.536,0,0,1-.536.536h-3.214a.536.536,0,0,1-.536-.536v-3.214a.536.536,0,0,1,.536-.536h3.214a.536.536,0,0,1,.536.536Zm-3.75,6.964a.536.536,0,0,1,.536.536v3.214a.536.536,0,0,1-.536.536h-3.214a.536.536,0,0,1-.536-.536v-3.214a.536.536,0,0,1,.536-.536Zm-2.678,5.893v3.214a.536.536,0,0,1-.536.536h-3.214a.536.536,0,0,1-.536-.536v-3.214a.536.536,0,0,1,.536-.536h3.214a.536.536,0,0,1,.536.536m2.143-7.5a.536.536,0,0,1-.536.536h-3.214a.536.536,0,0,1-.536-.536v-3.214a.536.536,0,0,1,.536-.536h3.214a.536.536,0,0,1,.536.536Zm-1.072-5.357a.536.536,0,0,1-.536.536h-3.214a.536.536,0,0,1-.536-.536v-3.214a.536.536,0,0,1,.536-.536h3.214a.536.536,0,0,1,.536.536Zm-3.75,6.964a.536.536,0,0,1,.536.536v3.214a.536.536,0,0,1-.536.536h-3.214a.536.536,0,0,1-.536-.536v-3.214a.536.536,0,0,1,.536-.536Zm-.536-1.607a.536.536,0,0,1-.536.536h-3.214a.536.536,0,0,1-.536-.536v-3.214a.536.536,0,0,1,.536-.536h3.214a.536.536,0,0,1,.536.536Zm-1.072-5.357a.536.536,0,0,1-.536.536h-3.214a.536.536,0,0,1-.536-.536v-3.214a.536.536,0,0,1,.536-.536h3.214a.536.536,0,0,1,.536.536Zm-5.357,12.857a.536.536,0,0,1,.536-.536h3.214a.536.536,0,0,1,.536.536v3.214a.536.536,0,0,1-.536.536h-3.214a.536.536,0,0,1-.536-.536Zm1.071,5.357a.536.536,0,0,1,.536-.536h19.286a.536.536,0,0,1,.536.536v3.214a.536.536,0,0,1-.536.536h-19.286a.536.536,0,0,1-.536-.536Zm18.75-6.964a.536.536,0,0,1-.536-.536v-3.214a.536.536,0,0,1,.536-.536h3.214a.536.536,0,0,1,.536.536v3.214a.536.536,0,0,1-.536.536Zm2.679-11.25v-3.214a.536.536,0,0,1,.536-.536h3.214a.536.536,0,0,1,.536.536v3.214a.536.536,0,0,1-.536.536h-3.214a.536.536,0,0,1-.536-.536m9.107,5.893h-7.5a.536.536,0,0,1-.536-.536v-3.214a.536.536,0,0,1,.536-.536h7.5a.536.536,0,0,1,.536.536v3.214a.536.536,0,0,1-.536.536m0-5.357h-3.214a.536.536,0,0,1-.536-.536v-3.214a.536.536,0,0,1,.536-.536h3.214a.536.536,0,0,1,.536.536v3.214a.536.536,0,0,1-.536.536m-46.071-4.286h3.214a.536.536,0,0,1,.536.536v3.214a.536.536,0,0,1-.536.536h-3.214a.536.536,0,0,1-.536-.536v-3.214a.536.536,0,0,1,.536-.536m-.536,21.964a.536.536,0,0,1,.536-.536h3.214a.536.536,0,0,1,.536.536v3.214a.536.536,0,0,1-.536.536h-3.214a.536.536,0,0,1-.536-.536Zm62.678,3.75h-3.214a.536.536,0,0,1-.536-.536v-8.571a.536.536,0,0,1,.536-.536h3.214a.536.536,0,0,1,.536.536v8.571a.536.536,0,0,1-.536.536" transform="translate(-2898.812 -2143.8)" fill="#ffa40d"/>
</svg>
