<svg xmlns="http://www.w3.org/2000/svg" width="57.857" height="30" viewBox="0 0 57.857 30">
  <g id="Group_14870" data-name="Group 14870" transform="translate(-358.416 -5281)">
    <path id="Path_17498" data-name="Path 17498" d="M5283.951,228.283h4.286a.536.536,0,0,0,.536-.536v-3.214a.536.536,0,0,0-.536-.536h-4.286a.535.535,0,0,0-.535.536v3.214a.535.535,0,0,0,.535.536" transform="translate(-4922.857 5064.503)" fill="#707070"/>
    <path id="Path_17499" data-name="Path 17499" d="M5283.951,68.283h3.214a.536.536,0,0,0,.536-.536V64.533a.536.536,0,0,0-.536-.536h-3.214a.535.535,0,0,0-.535.536v3.214a.535.535,0,0,0,.535.536" transform="translate(-4922.857 5219.146)" fill="#707070"/>
    <path id="Path_17500" data-name="Path 17500" d="M5287.166,704h-3.214a.535.535,0,0,0-.535.536v3.214a.535.535,0,0,0,.535.536h3.214a.536.536,0,0,0,.536-.536v-3.214a.536.536,0,0,0-.536-.536" transform="translate(-4922.857 4600.575)" fill="#707070"/>
    <path id="Path_17501" data-name="Path 17501" d="M5447.166,704h-3.214a.536.536,0,0,0-.536.536v3.214a.536.536,0,0,0,.536.536h3.214a.536.536,0,0,0,.536-.536v-3.214a.536.536,0,0,0-.536-.536" transform="translate(-5077.5 4600.575)" fill="#707070"/>
    <path id="Path_17502" data-name="Path 17502" d="M5607.166,704h-3.214a.536.536,0,0,0-.535.536v3.214a.536.536,0,0,0,.535.536h3.214a.536.536,0,0,0,.536-.536v-3.214a.536.536,0,0,0-.536-.536" transform="translate(-5232.143 4600.575)" fill="#707070"/>
    <path id="Path_17503" data-name="Path 17503" d="M5575.7,547.747v-3.214a.536.536,0,0,0-.535-.536h-3.215a.536.536,0,0,0-.535.536v3.214a.535.535,0,0,0,.535.536h3.215a.535.535,0,0,0,.535-.536" transform="translate(-5201.214 4755.217)" fill="#707070"/>
    <path id="Path_17504" data-name="Path 17504" d="M5735.7,547.747v-3.214a.536.536,0,0,0-.536-.536h-3.215a.535.535,0,0,0-.535.536v3.214a.535.535,0,0,0,.535.536h3.215a.536.536,0,0,0,.536-.536" transform="translate(-5355.857 4755.217)" fill="#707070"/>
    <path id="Path_17505" data-name="Path 17505" d="M5831.7,387.747v-3.214a.535.535,0,0,0-.535-.536h-3.214a.536.536,0,0,0-.536.536v3.214a.536.536,0,0,0,.536.536h3.214a.535.535,0,0,0,.535-.536" transform="translate(-5448.643 4909.86)" fill="#707070"/>
    <path id="Path_17561" data-name="Path 17561" d="M5831.7,387.747v-3.214a.535.535,0,0,0-.535-.536h-3.214a.536.536,0,0,0-.536.536v3.214a.536.536,0,0,0,.536.536h3.214a.535.535,0,0,0,.535-.536" transform="translate(-5454.001 4909.86)" fill="#707070"/>
    <path id="Path_17562" data-name="Path 17562" d="M5831.7,387.747v-3.214a.535.535,0,0,0-.535-.536h-3.214a.536.536,0,0,0-.536.536v3.214a.536.536,0,0,0,.536.536h3.214a.535.535,0,0,0,.535-.536" transform="translate(-5459.357 4909.86)" fill="#707070"/>
    <path id="Path_17506" data-name="Path 17506" d="M5891.952,548.283h3.214a.536.536,0,0,0,.536-.536v-3.214a.536.536,0,0,0-.536-.536h-3.214a.536.536,0,0,0-.536.536v3.214a.536.536,0,0,0,.536.536" transform="translate(-5510.5 4755.217)" fill="#707070"/>
    <path id="Path_17507" data-name="Path 17507" d="M5991.7,387.747v-3.214a.536.536,0,0,0-.536-.536h-3.214a.535.535,0,0,0-.535.536v3.214a.535.535,0,0,0,.535.536h3.214a.536.536,0,0,0,.536-.536" transform="translate(-5603.286 4909.86)" fill="#707070"/>
    <path id="Path_17508" data-name="Path 17508" d="M6051.951,548.283h3.214a.536.536,0,0,0,.536-.536v-3.214a.536.536,0,0,0-.536-.536h-3.214a.536.536,0,0,0-.536.536v3.214a.536.536,0,0,0,.536.536" transform="translate(-5665.143 4755.217)" fill="#707070"/>
    <path id="Path_17509" data-name="Path 17509" d="M6151.7,387.747v-3.214a.536.536,0,0,0-.536-.536h-3.214a.536.536,0,0,0-.536.536v3.214a.536.536,0,0,0,.536.536h3.214a.536.536,0,0,0,.536-.536" transform="translate(-5757.929 4909.86)" fill="#707070"/>
    <path id="Path_17510" data-name="Path 17510" d="M6311.7,387.747v-3.214a.536.536,0,0,0-.536-.536h-3.214a.536.536,0,0,0-.536.536v3.214a.536.536,0,0,0,.536.536h3.214a.536.536,0,0,0,.536-.536" transform="translate(-5912.572 4909.86)" fill="#707070"/>
    <path id="Path_17511" data-name="Path 17511" d="M6211.952,548.283h3.214a.535.535,0,0,0,.535-.536v-3.214a.535.535,0,0,0-.535-.536h-3.214a.536.536,0,0,0-.536.536v3.214a.536.536,0,0,0,.536.536" transform="translate(-5819.786 4755.217)" fill="#707070"/>
    <path id="Path_17512" data-name="Path 17512" d="M5635.416,224.533v3.214a.536.536,0,0,0,.536.536h3.214a.536.536,0,0,0,.536-.536v-3.214a.536.536,0,0,0-.536-.536h-3.214a.536.536,0,0,0-.536.536" transform="translate(-5263.071 5064.503)" fill="#707070"/>
    <path id="Path_17513" data-name="Path 17513" d="M5475.416,224.533v3.214a.536.536,0,0,0,.536.536h3.214a.536.536,0,0,0,.536-.536v-3.214a.536.536,0,0,0-.536-.536h-3.214a.536.536,0,0,0-.536.536" transform="translate(-5108.428 5064.503)" fill="#707070"/>
    <path id="Path_17514" data-name="Path 17514" d="M5795.416,224.533v3.214a.536.536,0,0,0,.536.536h3.214a.536.536,0,0,0,.536-.536v-3.214a.536.536,0,0,0-.536-.536h-3.214a.536.536,0,0,0-.536.536" transform="translate(-5417.714 5064.503)" fill="#707070"/>
    <path id="Path_17515" data-name="Path 17515" d="M5955.416,224.533v3.214a.535.535,0,0,0,.535.536h3.214a.536.536,0,0,0,.536-.536v-3.214a.536.536,0,0,0-.536-.536h-3.214a.535.535,0,0,0-.535.536" transform="translate(-5572.357 5064.503)" fill="#707070"/>
    <path id="Path_17516" data-name="Path 17516" d="M6115.416,224.533v3.214a.536.536,0,0,0,.536.536h3.214a.536.536,0,0,0,.536-.536v-3.214a.536.536,0,0,0-.536-.536h-3.214a.536.536,0,0,0-.536.536" transform="translate(-5727 5064.503)" fill="#707070"/>
    <path id="Path_17517" data-name="Path 17517" d="M6275.416,224.533v3.214a.536.536,0,0,0,.535.536h3.215a.536.536,0,0,0,.535-.536v-3.214a.536.536,0,0,0-.535-.536h-3.215a.536.536,0,0,0-.535.536" transform="translate(-5881.643 5064.503)" fill="#707070"/>
    <path id="Path_17518" data-name="Path 17518" d="M5443.952,68.283h3.214a.536.536,0,0,0,.536-.536V64.533a.536.536,0,0,0-.536-.536h-3.214a.536.536,0,0,0-.536.536v3.214a.536.536,0,0,0,.536.536" transform="translate(-5077.5 5219.146)" fill="#707070"/>
    <path id="Path_17519" data-name="Path 17519" d="M5603.951,68.283h3.214a.536.536,0,0,0,.536-.536V64.533a.536.536,0,0,0-.536-.536h-3.214a.536.536,0,0,0-.535.536v3.214a.536.536,0,0,0,.535.536" transform="translate(-5232.143 5219.146)" fill="#707070"/>
    <path id="Path_17520" data-name="Path 17520" d="M5763.952,68.283h3.214a.536.536,0,0,0,.536-.536V64.533a.536.536,0,0,0-.536-.536h-3.214a.536.536,0,0,0-.536.536v3.214a.536.536,0,0,0,.536.536" transform="translate(-5386.786 5219.146)" fill="#707070"/>
    <path id="Path_17521" data-name="Path 17521" d="M5923.951,68.283h3.215a.536.536,0,0,0,.536-.536V64.533a.536.536,0,0,0-.536-.536h-3.215a.536.536,0,0,0-.535.536v3.214a.536.536,0,0,0,.535.536" transform="translate(-5541.428 5219.146)" fill="#707070"/>
    <path id="Path_17522" data-name="Path 17522" d="M6083.952,68.283h3.214a.536.536,0,0,0,.536-.536V64.533a.536.536,0,0,0-.536-.536h-3.214a.536.536,0,0,0-.536.536v3.214a.536.536,0,0,0,.536.536" transform="translate(-5696.071 5219.146)" fill="#707070"/>
    <path id="Path_17523" data-name="Path 17523" d="M6243.951,68.283h3.215a.536.536,0,0,0,.535-.536V64.533a.536.536,0,0,0-.535-.536h-3.215a.536.536,0,0,0-.535.536v3.214a.536.536,0,0,0,.535.536" transform="translate(-5850.714 5219.146)" fill="#707070"/>
    <path id="Path_17524" data-name="Path 17524" d="M6403.951,68.283h3.214a.536.536,0,0,0,.536-.536V64.533a.536.536,0,0,0-.536-.536h-3.214a.536.536,0,0,0-.536.536v3.214a.536.536,0,0,0,.536.536" transform="translate(-6005.356 5219.146)" fill="#707070"/>
    <path id="Path_17525" data-name="Path 17525" d="M6567.166,64h-3.214a.536.536,0,0,0-.536.536v3.214a.536.536,0,0,0,.536.536h3.214a.536.536,0,0,0,.536-.536V64.533a.536.536,0,0,0-.536-.536" transform="translate(-6160 5219.146)" fill="#707070"/>
    <path id="Path_17526" data-name="Path 17526" d="M6759.166,224h-3.214a.536.536,0,0,0-.536.536v3.214a.536.536,0,0,0,.536.536h3.214a.536.536,0,0,0,.536-.536v-3.214a.536.536,0,0,0-.536-.536" transform="translate(-6345.571 5064.503)" fill="#707070"/>
    <path id="Path_17527" data-name="Path 17527" d="M6759.166,384h-3.214a.536.536,0,0,0-.536.536v3.214a.536.536,0,0,0,.536.536h3.214a.536.536,0,0,0,.536-.536v-3.214a.536.536,0,0,0-.536-.536" transform="translate(-6345.571 4909.86)" fill="#707070"/>
    <path id="Path_17528" data-name="Path 17528" d="M6759.009,544.378h-3.214a.536.536,0,0,0-.536.536v3.214a.536.536,0,0,0,.536.536h3.214a.536.536,0,0,0,.536-.536v-3.214a.536.536,0,0,0-.536-.536" transform="translate(-6345.419 4754.849)" fill="#707070"/>
    <path id="Path_17529" data-name="Path 17529" d="M6474.38,384h-6.429a.536.536,0,0,0-.536.536v3.214a.536.536,0,0,0,.536.536h6.429a.536.536,0,0,0,.536-.536v-3.214a.536.536,0,0,0-.536-.536" transform="translate(-6067.214 4909.86)" fill="#707070"/>
    <path id="Path_17530" data-name="Path 17530" d="M6759.009,704.378h-3.214a.536.536,0,0,0-.536.536v3.214a.536.536,0,0,0,.536.536h3.214a.536.536,0,0,0,.536-.536v-3.214a.536.536,0,0,0-.536-.536" transform="translate(-6345.419 4600.206)" fill="#707070"/>
    <path id="Path_17531" data-name="Path 17531" d="M6596.166,704h-3.215a.536.536,0,0,0-.535.536v3.214a.536.536,0,0,0,.535.536h3.215a.536.536,0,0,0,.535-.536v-3.214a.536.536,0,0,0-.535-.536" transform="translate(-6188.029 4600.575)" fill="#707070"/>
    <path id="Path_17532" data-name="Path 17532" d="M6596.008,544.378h-3.214a.536.536,0,0,0-.536.536v3.214a.536.536,0,0,0,.536.536h3.214a.536.536,0,0,0,.536-.536v-3.214a.536.536,0,0,0-.536-.536" transform="translate(-6187.876 4754.849)" fill="#707070"/>
    <path id="Path_17533" data-name="Path 17533" d="M6377.051,544.378h-5.256a.536.536,0,0,0-.536.536v3.214a.536.536,0,0,0,.536.536h5.256a.536.536,0,0,0,.536-.536v-3.214a.536.536,0,0,0-.536-.536" transform="translate(-5974.277 4754.849)" fill="#707070"/>
    <path id="Path_17534" data-name="Path 17534" d="M6436.166,704h-3.215a.535.535,0,0,0-.535.536v3.214a.535.535,0,0,0,.535.536h3.215a.535.535,0,0,0,.535-.536v-3.214a.535.535,0,0,0-.535-.536" transform="translate(-6033.386 4600.575)" fill="#707070"/>
    <path id="Path_17535" data-name="Path 17535" d="M6443.451,224h-7.5a.535.535,0,0,0-.535.536v3.214a.535.535,0,0,0,.535.536h7.5a.536.536,0,0,0,.536-.536v-3.214a.536.536,0,0,0-.536-.536" transform="translate(-6036.286 5064.503)" fill="#707070"/>
    <path id="Path_17536" data-name="Path 17536" d="M5784.309,704h-20.357a.536.536,0,0,0-.536.536v3.214a.536.536,0,0,0,.536.536h20.357a.536.536,0,0,0,.536-.536v-3.214a.536.536,0,0,0-.536-.536" transform="translate(-5386.786 4600.575)" fill="#707070"/>
    <path id="Path_17537" data-name="Path 17537" d="M5283.951,548.283h7.5a.536.536,0,0,0,.536-.536v-3.214a.536.536,0,0,0-.536-.536h-7.5a.535.535,0,0,0-.535.536v3.214a.535.535,0,0,0,.535.536" transform="translate(-4922.857 4755.217)" fill="#707070"/>
    <path id="Path_17538" data-name="Path 17538" d="M5283.951,388.283h5.357a.536.536,0,0,0,.536-.536v-3.214a.536.536,0,0,0-.536-.536h-5.357a.535.535,0,0,0-.535.536v3.214a.535.535,0,0,0,.535.536" transform="translate(-4922.857 4909.86)" fill="#707070"/>
    <path id="Path_17539" data-name="Path 17539" d="M5275.13,0h-53.572a2.143,2.143,0,0,0-2.143,2.143V27.854A2.143,2.143,0,0,0,5221.559,30h53.572a2.143,2.143,0,0,0,2.143-2.143V2.14A2.143,2.143,0,0,0,5275.13,0m1.052,27.857a1.053,1.053,0,0,1-1.052,1.052h-53.572a1.053,1.053,0,0,1-1.052-1.052V2.14a1.053,1.053,0,0,1,1.052-1.052h53.572a1.053,1.053,0,0,1,1.052,1.052Z" transform="translate(-4861 5281.003)" fill="#707070"/>
    <path id="Path_17540" data-name="Path 17540" d="M6757.559,64a2.143,2.143,0,1,0,2.143,2.143A2.143,2.143,0,0,0,6757.559,64" transform="translate(-6345.571 5219.146)" fill="#707070"/>
  </g>
</svg>
