<svg xmlns="http://www.w3.org/2000/svg" xmlns:xlink="http://www.w3.org/1999/xlink" width="58" height="30" viewBox="0 0 58 30">
  <defs>
    <clipPath id="clip-path">
      <rect id="Rectangle_6596" data-name="Rectangle 6596" width="58" height="30" transform="translate(-118 -3553)" fill="#fff" stroke="#707070" stroke-width="1"/>
    </clipPath>
  </defs>
  <g id="Mask_Group_14809" data-name="Mask Group 14809" transform="translate(118 3553)" clip-path="url(#clip-path)">
    <path id="Path_17573" data-name="Path 17573" d="M5275.126,2143.8h-53.571a2.143,2.143,0,0,0-2.143,2.143v25.714a2.143,2.143,0,0,0,2.143,2.143h53.571a2.143,2.143,0,0,0,2.143-2.143v-25.714a2.143,2.143,0,0,0-2.143-2.143m-2.143,6.428a2.143,2.143,0,1,1,2.143-2.143,2.143,2.143,0,0,1-2.143,2.143m2.143,1.607v3.214a.536.536,0,0,1-.536.536h-3.214a.536.536,0,0,1-.536-.536v-3.214a.536.536,0,0,1,.536-.536h3.214a.536.536,0,0,1,.536.536m-4.291,16.084a.536.536,0,0,1,.536-.536h3.214a.536.536,0,0,1,.536.536v3.214a.536.536,0,0,1-.536.536h-3.214a.536.536,0,0,1-.536-.536Zm-48.745-11.263h5.357a.536.536,0,0,1,.536.536v3.214a.536.536,0,0,1-.536.536h-5.357a.536.536,0,0,1-.536-.536v-3.214a.536.536,0,0,1,.536-.536m-.536-1.607v-3.214a.536.536,0,0,1,.536-.536h4.286a.536.536,0,0,1,.536.536v3.214a.536.536,0,0,1-.536.536h-4.286a.536.536,0,0,1-.536-.536m9.643-5.357a.536.536,0,0,1-.536.536h-3.214a.536.536,0,0,1-.536-.536v-3.214a.536.536,0,0,1,.536-.536h3.214a.536.536,0,0,1,.536.536Zm.536,1.607a.536.536,0,0,1,.536.536v3.214a.536.536,0,0,1-.536.536h-3.214a.536.536,0,0,1-.536-.536v-3.214a.536.536,0,0,1,.536-.536Zm-9.643,10.714h7.5a.536.536,0,0,1,.536.536v3.214a.536.536,0,0,1-.536.536h-7.5a.536.536,0,0,1-.536-.536v-3.214a.536.536,0,0,1,.536-.536m4.822,5.893a.536.536,0,0,1,.536-.536h3.214a.536.536,0,0,1,.536.536v3.214a.536.536,0,0,1-.536.536h-3.214a.536.536,0,0,1-.536-.536Zm2.678-6.964a.536.536,0,0,1-.536-.536v-3.214a.536.536,0,0,1,.536-.536h3.214a.536.536,0,0,1,.536.536v3.214a.536.536,0,0,1-.536.536Zm6.964-11.25a.536.536,0,0,1-.536.536H5232.8a.536.536,0,0,1-.536-.536v-3.214a.536.536,0,0,1,.536-.536h3.214a.536.536,0,0,1,.536.536Zm.536,1.607a.536.536,0,0,1,.536.536v3.214a.536.536,0,0,1-.536.536h-3.214a.536.536,0,0,1-.536-.536v-3.214a.536.536,0,0,1,.536-.536Zm-5.893,11.25a.536.536,0,0,1,.536-.536h3.214a.536.536,0,0,1,.536.536v3.214a.536.536,0,0,1-.536.536h-3.214a.536.536,0,0,1-.536-.536Zm1.071,5.357a.536.536,0,0,1,.536-.536h3.214a.536.536,0,0,1,.536.536v3.214a.536.536,0,0,1-.536.536H5232.8a.536.536,0,0,1-.536-.536Zm2.679-6.964a.536.536,0,0,1-.536-.536v-3.214a.536.536,0,0,1,.536-.536h3.214a.536.536,0,0,1,.536.536v3.214a.536.536,0,0,1-.536.536Zm33.214-9.643a.536.536,0,0,1,.536.536v3.214a.536.536,0,0,1-.536.536h-7.5a.536.536,0,0,1-.536-.536v-3.214a.536.536,0,0,1,.536-.536Zm-3.75-1.607v-3.214a.536.536,0,0,1,.536-.536h3.214a.536.536,0,0,1,.536.536v3.214a.536.536,0,0,1-.536.536h-3.214a.536.536,0,0,1-.536-.536m-1.072,0a.536.536,0,0,1-.536.536h-3.214a.536.536,0,0,1-.536-.536v-3.214a.536.536,0,0,1,.536-.536h3.214a.536.536,0,0,1,.536.536Zm-3.75,6.964a.536.536,0,0,1,.536.536v3.214a.536.536,0,0,1-.536.536h-3.214a.536.536,0,0,1-.536-.536v-3.214a.536.536,0,0,1,.536-.536Zm-2.678,5.893v3.214a.536.536,0,0,1-.536.536h-3.214a.536.536,0,0,1-.536-.536v-3.214a.536.536,0,0,1,.536-.536h3.214a.536.536,0,0,1,.536.536m2.143-7.5a.536.536,0,0,1-.536.536H5255.3a.536.536,0,0,1-.536-.536v-3.214a.536.536,0,0,1,.536-.536h3.214a.536.536,0,0,1,.536.536Zm-1.071-5.357a.536.536,0,0,1-.536.536h-3.214a.536.536,0,0,1-.536-.536v-3.214a.536.536,0,0,1,.536-.536h3.214a.536.536,0,0,1,.536.536Zm-3.75,6.964a.536.536,0,0,1,.536.536v3.214a.536.536,0,0,1-.536.536h-3.214a.536.536,0,0,1-.536-.536v-3.214a.536.536,0,0,1,.536-.536Zm-2.679,5.893v3.214a.536.536,0,0,1-.536.536H5247.8a.536.536,0,0,1-.536-.536v-3.214a.536.536,0,0,1,.536-.536h3.214a.536.536,0,0,1,.536.536m2.143-7.5a.536.536,0,0,1-.536.536h-3.214a.536.536,0,0,1-.536-.536v-3.214a.536.536,0,0,1,.536-.536h3.214a.536.536,0,0,1,.536.536Zm-1.072-5.357a.536.536,0,0,1-.536.536h-3.214a.536.536,0,0,1-.536-.536v-3.214a.536.536,0,0,1,.536-.536h3.214a.536.536,0,0,1,.536.536Zm-3.75,6.964a.536.536,0,0,1,.536.536v3.214a.536.536,0,0,1-.536.536h-3.214a.536.536,0,0,1-.536-.536v-3.214a.536.536,0,0,1,.536-.536Zm-2.678,5.893v3.214a.536.536,0,0,1-.536.536h-3.214a.536.536,0,0,1-.536-.536v-3.214a.536.536,0,0,1,.536-.536h3.214a.536.536,0,0,1,.536.536m2.143-7.5a.536.536,0,0,1-.536.536h-3.214a.536.536,0,0,1-.536-.536v-3.214a.536.536,0,0,1,.536-.536h3.214a.536.536,0,0,1,.536.536Zm-1.071-5.357a.536.536,0,0,1-.536.536h-3.214a.536.536,0,0,1-.536-.536v-3.214a.536.536,0,0,1,.536-.536h3.214a.536.536,0,0,1,.536.536Zm-3.75,6.964a.536.536,0,0,1,.536.536v3.214a.536.536,0,0,1-.536.536H5240.3a.536.536,0,0,1-.536-.536v-3.214a.536.536,0,0,1,.536-.536Zm-.536-1.607a.536.536,0,0,1-.536.536h-3.214a.536.536,0,0,1-.536-.536v-3.214a.536.536,0,0,1,.536-.536h3.214a.536.536,0,0,1,.536.536Zm-1.071-5.357a.536.536,0,0,1-.536.536h-3.214a.536.536,0,0,1-.536-.536v-3.214a.536.536,0,0,1,.536-.536h3.214a.536.536,0,0,1,.536.536Zm-5.357,12.857a.536.536,0,0,1,.536-.536h3.214a.536.536,0,0,1,.536.536v3.214a.536.536,0,0,1-.536.536h-3.214a.536.536,0,0,1-.536-.536Zm1.071,5.357a.536.536,0,0,1,.536-.536h20.357a.536.536,0,0,1,.536.536v3.214a.536.536,0,0,1-.536.536h-20.357a.536.536,0,0,1-.536-.536Zm20.888-1.594a.535.535,0,0,1-.536-.536v-3.214a.535.535,0,0,1,.536-.536h5.256a.536.536,0,0,1,.536.536v3.214a.536.536,0,0,1-.536.536Zm1.512,1.594a.536.536,0,0,1,.536-.536h3.214a.536.536,0,0,1,.536.536v3.214a.536.536,0,0,1-.536.536h-3.214a.536.536,0,0,1-.536-.536Zm1.708-6.964a.536.536,0,0,1-.536-.536v-3.214a.536.536,0,0,1,.536-.536h6.429a.536.536,0,0,1,.536.536v3.214a.536.536,0,0,1-.536.536Zm3.645,1.62a.536.536,0,0,1,.536-.536h3.214a.536.536,0,0,1,.536.536v3.214a.536.536,0,0,1-.536.536h-3.214a.536.536,0,0,1-.536-.536Zm0,5.344a.536.536,0,0,1,.536-.536h3.214a.536.536,0,0,1,.536.536v3.214a.536.536,0,0,1-.536.536h-3.214a.536.536,0,0,1-.536-.536Zm-43.292-21.964h3.214a.536.536,0,0,1,.536.536v3.214a.536.536,0,0,1-.536.536h-3.214a.536.536,0,0,1-.536-.536v-3.214a.536.536,0,0,1,.536-.536m-.536,21.964a.536.536,0,0,1,.536-.536h3.214a.536.536,0,0,1,.536.536v3.214a.536.536,0,0,1-.536.536h-3.214a.536.536,0,0,1-.536-.536Zm53.566-2.13a.536.536,0,0,1-.536.536h-3.214a.536.536,0,0,1-.536-.536v-3.214a.536.536,0,0,1,.536-.536h3.214a.536.536,0,0,1,.536.536Zm-.531-4.834h-3.214a.536.536,0,0,1-.536-.536v-3.214a.536.536,0,0,1,.536-.536h3.214a.536.536,0,0,1,.536.536v3.214a.536.536,0,0,1-.536.536" transform="translate(-5337.412 -5696.8)" fill="#ffa40d"/>
  </g>
</svg>
