<?xml version="1.0" encoding="UTF-8"?><svg id="Layer_1" xmlns="http://www.w3.org/2000/svg" viewBox="0 0 48 48"><defs><style>.cls-1{fill:#707070;stroke-width:0px;}</style></defs><path class="cls-1" d="m38.88,22.27l.89-.2-.89.19c-.47-2.12-.92-4.13-.8-6.41.48-9.23-.5-11.79-2.35-13.09l-.15-.11c-1.16-.86-6.28-2.03-9.44-2.6-.92-.14-1.78.03-2.58.54l-.5.32-.61-.26c-.18-.12-.36-.24-.52-.34-.28-.17-.66-.26-1.2-.26-1.47,0-4.13.68-9.35,2.29-3.75,1.16-3.48,5.65-2.72,9.9,1.19,6.67.51,10.98-.28,15.96-.13.82-.26,1.64-.39,2.56-.53,4.9.52,8.98,3.12,12.07,3.71,4.41,9,5.06,10.54,5.16,6.61.42,14.71-3.31,17.22-12.19,1.69-5.96.8-9.97.02-13.51Zm-1.93,12.97c-2.42,8.54-9.77,10.77-14.32,10.77-.3,0-.59-.01-.86-.03-2.75-.17-6.6-1.43-9.14-4.45-2.24-2.66-3.14-6.21-2.67-10.53v-.04c.12-.75.23-1.48.34-2.2l.04-.26c.78-4.95,1.52-9.63.24-16.8-.72-4.01-.75-6.82,1.43-7.5,3.29-1.01,7.23-2.18,8.54-2.23h.29s.24.15.24.15c.17.11.36.24.53.37l.43.27.15.59v3.52l-.45.26c-.86.5-1.37,1.38-1.37,2.35v3.41c0,.97.51,1.85,1.37,2.35l.45.26v2.6c0,.5.41.91.91.91s.91-.41.91-.91v-2.6l.45-.26c.86-.5,1.37-1.38,1.37-2.35v-3.41c0-.97-.51-1.85-1.37-2.35l-.45-.26V2.63l.72-.44c.3-.19.67-.26,1.12-.17,2.33.37,7.6,1.64,8.48,2.18l.26.19c.65.46,2.03,1.43,1.51,11.36-.13,2.55.36,4.78.84,6.94.77,3.48,1.57,7.07.01,12.55Z"/></svg>