<?xml version="1.0" encoding="UTF-8"?><svg id="Layer_1" xmlns="http://www.w3.org/2000/svg" viewBox="0 0 48 48"><defs><style>.cls-1{fill:#ffa40d;stroke-width:0px;}</style></defs><path class="cls-1" d="m36.96,35.27c-2.42,8.54-9.77,10.77-14.32,10.77-.3,0-.59-.01-.86-.03-2.75-.17-6.6-1.43-9.14-4.45-2.24-2.66-3.14-6.21-2.67-10.53v-.04c.12-.75.23-1.48.34-2.2l.04-.26c.78-4.95,1.52-9.63.24-16.8-.72-4.01-.75-6.82,1.43-7.5,3.29-1.01,7.23-2.18,8.54-2.23h.29s.24.15.24.15c.17.11.36.24.53.37l.43.27.15.59v3.52l-.45.26c-.86.5-1.37,1.38-1.37,2.35v3.41c0,.97.51,1.85,1.37,2.35l.45.26v2.6c0,.5.41.91.91.91s.91-.41.91-.91v-2.6l.45-.26c.86-.5,1.37-1.38,1.37-2.35v-3.41c0-.97-.51-1.85-1.37-2.35l-.45-.26V2.66l.72-.44c.3-.19.67-.26,1.12-.17,2.33.37,7.6,1.64,8.48,2.18l.26.19c.65.46,2.03,1.43,1.51,11.36-.13,2.55.36,4.78.84,6.94.77,3.48,1.57,7.07.01,12.55Z"/></svg>